<?xml version="1.0" encoding="UTF-8" standalone="no"?>
<!DOCTYPE svg PUBLIC "-//W3C//DTD SVG 1.1//EN" "http://www.w3.org/Graphics/SVG/1.1/DTD/svg11.dtd">
<svg width="100%" height="100%" viewBox="0 0 1922 1082" version="1.1" xmlns="http://www.w3.org/2000/svg" xmlns:xlink="http://www.w3.org/1999/xlink" xml:space="preserve" xmlns:serif="http://www.serif.com/" style="fill-rule:evenodd;clip-rule:evenodd;stroke-linejoin:round;stroke-miterlimit:2;">
    <path id="warped-curves" d="M7.637,1c-2.183,3.449 -4.384,6.854 -6.637,10.246l0,2.34c2.797,-4.133 5.498,-8.352 8.205,-12.586l-1.568,0Zm1846.19,1.375c-1.274,-0.475 -2.539,-0.921 -3.805,-1.375l-4.875,-0c4.618,1.498 9.233,3.096 13.89,4.853c15.75,5.954 31.937,9.425 48.078,13.781c4.626,1.245 9.25,2.462 13.883,3.621l0,-1.461c-5.531,-1.39 -11.046,-2.866 -16.569,-4.342c-17.103,-4.622 -33.915,-8.734 -50.602,-15.077Zm-463.5,137.356c1.202,11.956 -1.471,24.293 -8.235,33.781c-27.812,39.038 -83.891,13.255 -115.174,-6.012c-21.997,-13.55 -42.291,-30.11 -62.182,-47.268c-18.829,-16.243 -37.312,-33.552 -58.119,-46.548c-47.961,-29.952 -104.237,-32.99 -157.561,-39.211c-25.767,-3.01 -51.732,-6.451 -76.826,-13.997c-15.654,-4.694 -29.888,-11.218 -43.59,-19.476l2.732,0c14.848,8.698 30.362,15.365 47.284,19.807c27.462,7.243 55.475,10.606 83.494,13.695c48.941,5.414 101.485,9.813 145.101,37.951c42.425,27.367 76.979,67.838 120.313,93.816c22.082,13.255 48.38,26.157 73.927,25.682c12.109,-0.23 25.399,-2.901 34.421,-12.866c9.566,-10.568 14.65,-24.078 13.17,-39.23c-7.523,-31.688 -24.53,-57.795 -42.786,-82.709c-9.11,-12.428 -18.165,-24.927 -28.126,-36.512c-5.608,-6.537 -11.297,-12.988 -16.798,-19.634l1.798,-0c5.953,7.099 12.078,14.011 18.032,21.125c10.436,12.521 20.108,25.848 29.742,39.146c17.008,23.472 32.336,48.629 39.358,78.264c0.017,0.069 0.024,0.134 0.025,0.196Zm-1355.13,-138.731c-10.778,15.343 -22.016,30.254 -34.202,44.122l0,2.023c12.813,-14.451 24.55,-30.075 35.814,-46.145l-1.612,-0Zm1427.23,150.377c0.001,-0.108 -0.025,-0.222 -0.085,-0.339c-0.028,-0.071 -0.063,-0.13 -0.104,-0.18c-4.113,-7.082 -4.678,-15.892 -8.591,-23.174c-4.14,-7.711 -8.609,-15.206 -13.195,-22.586c-8.976,-14.429 -18.843,-28.145 -29.008,-41.516c-16.266,-21.412 -33.585,-41.767 -50.445,-62.582l-1.726,-0c16.452,20.39 33.336,40.32 49.39,61.121c10.829,14.025 21.125,28.562 30.696,43.697c4.64,7.351 9,14.911 13.195,22.586c4.011,7.309 4.451,16.107 8.643,23.253c6.628,29.971 -3.462,55.58 -21.119,77.806c-15.079,18.987 -35.899,31.515 -58.634,32.256c-12.233,0.389 -25.079,-3.463 -36.89,-6.717c-12.656,-3.5 -24.999,-8.295 -37.094,-13.76c-12.179,-5.5 -23.984,-12.463 -36.08,-18.316c-12.16,-5.89 -23.527,-13.364 -34.874,-21.01c-42.272,-28.49 -79.52,-65.282 -124.147,-89.366c-20.461,-11.038 -42.061,-19.145 -64.275,-24.221c-23.091,-5.278 -46.983,-6.66 -70.413,-8.986c-37.562,-3.686 -75.232,-8.294 -110.874,-23.004c-30.534,-12.607 -58.611,-33.35 -84.998,-55.339l-1.984,-0c34.125,28.159 70.406,53.258 111.622,65.527c46.279,13.767 94.765,13.68 141.984,20.549c49.031,7.142 93.76,32.35 134.087,63.634c21.107,16.387 41.395,33.768 63.245,48.938c10.31,7.157 20.755,14.278 31.635,20.254c11.917,6.552 24.44,11.527 36.251,18.352c19.509,11.247 41.712,17.892 63.165,22.392c18.423,3.852 35.304,2.6 52.312,-6.782c16.227,-8.935 29.203,-24.365 38.978,-41.22c10.988,-18.963 14.175,-39.322 9.333,-61.267Zm405.252,-127.035c-30.243,-9.597 -60.227,-16.502 -91.579,-19.144c-31.664,-2.672 -63.453,-2.895 -95.179,-3.896c-3.125,-0.108 -6.258,-0.194 -9.39,-0.302l-25.759,-0c7.281,0.576 14.618,0.929 21.994,1.246c32.803,1.389 65.648,1.483 98.429,3.643c33.593,2.196 65.639,8.733 98.038,18.842c15.563,4.867 31,10.354 46.728,14.501c3.328,0.878 6.678,1.67 10.038,2.412l0,-1.548c-2.233,-0.497 -4.476,-0.965 -6.71,-1.498c-15.734,-3.693 -31.149,-9.352 -46.61,-14.256Zm-1808.91,-23.342c-17.702,26.683 -35.456,53.806 -57.766,75.355l0,1.851c23.002,-21.975 41.158,-49.839 59.328,-77.206l-1.562,-0Zm1796.79,42.401c-34.908,-9.195 -70.166,-13.781 -105.868,-16.524c-36.774,-2.83 -73.688,-0.303 -110.446,-3.658c-19.014,-1.742 -37.679,-5.594 -55.992,-11.635c-7.742,-2.549 -15.085,-6.365 -22.288,-10.584l-2.525,-0c5.33,3.161 10.728,6.149 16.322,8.633c16.531,7.344 34.304,11.016 51.867,13.536c36.616,5.27 73.726,2.88 110.523,4.413c37.656,1.541 75.149,6.603 111.976,15.639c18.391,4.521 36.555,10.13 54.547,16.365c5.805,2.024 11.57,4.169 17.328,6.344l0,-0.929c-4.702,-1.966 -9.382,-4.075 -13.984,-5.731c-16.961,-6.041 -34.14,-11.297 -51.46,-15.869Zm-1769.81,-42.401c-26.439,36.864 -50.72,77.242 -84.749,104.746l0,1.778c34.784,-27.828 59.392,-69.062 86.374,-106.524l-1.625,-0Zm22.003,-0c-17.28,22.781 -33.594,46.498 -51.098,69.062c-11.136,14.379 -22.918,28.095 -35.513,40.853c-6.144,6.221 -13.018,11.283 -20.141,15.941l0,1.462c5.613,-3.672 11.11,-7.539 16.314,-11.967c13.312,-11.34 24.889,-26.021 36.032,-39.924c19.5,-24.365 37.171,-50.501 56.089,-75.427l-1.683,-0Zm1695.97,125.453c-6.64,-7.013 -16.601,-10.102 -25.03,-13.075c-11.422,-4.025 -23.344,-6.063 -35.219,-7.488c-25.758,-3.111 -52.571,1.461 -78.382,2.282c-27.049,0.864 -53.751,-1.721 -79.29,-12.341c-22.415,-9.295 -43.734,-21.758 -63.837,-36.245c-23.132,-16.682 -44.28,-36.633 -63.624,-58.586l-1.734,-0c27.484,31.219 58.539,58.061 93.257,78.43c20.586,12.096 42.485,22.291 65.375,26.971c24.657,5.025 50.056,3.463 74.93,2.001c26.828,-1.562 53.016,-3.096 79.43,3.694c12.133,3.125 25.696,7.416 34.946,17.186c13.742,14.544 -6.978,30.924 -17.642,36.936c-9.226,5.206 -19.616,7.697 -29.702,9.663c-12.876,2.52 -25.312,6.681 -37.922,10.461c-24.523,7.33 -50.352,8.864 -74.243,19.289c-21.844,9.562 -42.827,21.161 -61.969,36.439c-17.937,14.321 -34.281,31.061 -50.023,48.32c-33.813,37.036 -64.851,79.363 -104.89,108.226c-21.501,15.506 -44.336,20.338 -67.165,5.908c-17.241,-10.917 -30.358,-29.057 -44.078,-44.719c-6.852,-7.827 -14.898,-12.831 -21.789,-20.622c-8.743,-9.877 -18.65,-17.682 -28.922,-25.437c-20.902,-15.782 -43.129,-29.138 -64.851,-43.394c-43.366,-28.512 -85.926,-58.363 -133.85,-76.255c-23.82,-8.899 -48.55,-14.659 -73.6,-16.33c-27.18,-1.829 -54.214,-1.317 -81.369,-4.716c-25.971,-3.233 -51.687,-6.257 -76.391,-16.466c-25.171,-10.426 -47.206,-28.62 -69.58,-44.892c-21.671,-15.775 -42.516,-32.875 -63.565,-49.68c-21.139,-16.877 -43.104,-32.659 -63.853,-50.112c-4.314,-3.622 -8.646,-7.243 -12.941,-10.901l-2.278,-0c34.093,29.405 70.374,55.829 105.357,83.779c21.529,17.194 43.532,33.538 65.862,49.428c20.621,14.674 41.837,25.877 65.638,32.206c24.096,6.379 49.908,8.33 74.528,10.476c27.68,2.426 55.642,0.576 83.13,5.198c52.262,8.777 99.91,35.266 145.152,64.865c22.253,14.558 44.435,29.254 66.72,43.718c22.093,14.357 45.792,29.038 63.922,49.514c3.29,3.73 6.392,8.122 10.298,11.024c4.241,3.132 7.867,5.522 11.492,9.598c7.101,8.017 13.89,16.349 21.093,24.259c12.407,13.622 26.555,25.663 43.883,29.389c19.892,4.255 39.016,-7.576 54.835,-19.897c18.681,-14.52 35.282,-32.31 51.407,-50.218c33.281,-36.972 64.446,-76.593 103.306,-106.387c20.726,-15.89 45.889,-28.778 70.038,-36.137c24.203,-7.401 48.992,-10.915 73.156,-18.461c20.11,-6.292 41.703,-7.416 59.984,-19.706c6.868,-4.622 12.32,-11.268 16.329,-19.015c3.335,-6.451 -2.531,-14.155 -6.329,-18.18Zm-1617.16,-125.453c-34.637,28.649 -58.029,71.258 -85.248,108.929c-27.207,37.641 -59.296,71.193 -100.314,84.29l0,1.44c38.362,-12.132 69.018,-41.925 95.264,-76.673c30.234,-40.024 54.547,-87.364 92.442,-117.986l-2.144,-0Zm926.304,389.671c-29.453,-31.183 -67.988,-48.601 -106.996,-57.816c-19.577,-4.601 -39.552,-6.977 -59.494,-8.186c-25.075,-1.534 -50.285,-2.902 -75.424,-2.794c-24.826,0.101 -49.542,3.103 -74.406,3.233c-26.746,0.122 -53.575,-1.987 -79.872,-7.718c-22.644,-4.925 -39.501,-22.551 -51.956,-43.51c-6.624,-11.16 -14.048,-21.78 -19.654,-33.638c-5.702,-12.06 -11.456,-24.106 -17.312,-36.058c-11.347,-23.134 -23.02,-45.756 -37.453,-66.636c-13.939,-20.167 -29.254,-38.938 -45.568,-56.657c-17.184,-18.684 -35.449,-36.158 -53.325,-53.964c-9.747,-9.72 -20.326,-17.892 -31.001,-25.927l-1.043,-0c2.009,1.548 4,3.125 5.964,4.73c11.207,9.087 22.016,18.893 32.25,29.34c18.157,18.526 36.909,36.209 54.298,55.685c17.516,19.649 33.548,40.925 47.911,63.612c14.7,23.256 26.386,49.219 38.373,74.34c10.72,22.464 22.874,45.929 38.407,64.671c13.997,16.912 31.545,23.94 51.264,27.633c25.92,4.867 52.294,5.832 78.515,5.415c26.893,-0.425 53.562,-3.536 80.486,-3.01c86.183,1.728 190.816,7.294 246.055,94.73c6.688,10.601 11.373,22.536 13.427,35.351c2.509,15.625 -1.683,31.324 -5.702,46.141c-6.932,25.648 -17.709,49.737 -29.69,72.801c-11.571,22.298 -24.544,43.637 -37.037,65.284c-13.798,23.924 -26.739,48.182 -42.291,70.762c-30.701,44.585 -66.95,84.981 -108.39,116.692c-9.735,7.445 -19.796,14.317 -30.016,20.847c-5.12,3.269 -10.324,6.363 -15.546,9.412c-6.355,3.701 -15.264,10.583 -22.483,11.023c-3.815,0.237 -6.97,2.267 -10.451,3.973c-6.829,3.33 -13.786,6.398 -20.736,9.378c-12.941,5.537 -26.093,10.415 -39.296,15.065c-51.565,18.158 -104.032,34.97 -157.69,42.845c-53.734,7.893 -106.918,4.835 -159.75,-8.534c-42.72,-10.811 -84.186,-27.122 -125.658,-42.75c-9.997,-3.771 -19.219,-9.624 -28.467,-15.222c-8.48,-5.125 -16.685,-8.437 -25.767,-11.848c-22.496,-8.472 -43.641,-21.655 -64.844,-33.574c-17.466,-9.826 -35.501,-17.078 -53.844,-24.786c-20.889,-8.78 -42.515,-15.274 -64.313,-20.478c-34.01,-8.12 -68.672,-12.384 -103.341,-15.302l0,1.46c43.654,3.743 87.174,9.747 129.613,22.306c11.776,3.49 23.385,7.621 34.841,12.217c5.767,2.303 11.45,4.834 17.108,7.444c4.544,2.101 11.379,7.506 16.486,7.813c7.059,0.431 13.766,5.449 19.968,8.958c5.702,3.207 11.392,6.396 17.094,9.57c12.621,7.049 25.312,13.975 38.061,20.75c9.722,5.161 20.691,6.848 30.426,12.122c10.464,5.685 20.371,12.549 31.123,17.64c23.827,11.275 49.651,19.098 74.33,27.676c48.934,17.025 99.123,29.919 150.515,30.568c51.744,0.649 104.358,-8.631 154.061,-24.636c25.516,-8.218 51.142,-15.996 76.467,-25.014c12.173,-4.341 24.249,-9.078 36.205,-14.194c5.062,-2.171 10.092,-4.439 15.078,-6.83c5.606,-2.68 11.936,-3.426 17.312,-6.238c43.878,-22.905 84.922,-52.911 119.629,-91.064c17.529,-19.266 34.144,-39.569 49.51,-61.067c14.867,-20.813 27.45,-43.136 40.109,-65.671c24.026,-42.759 50.81,-83.786 67.373,-131.221c7.769,-22.236 14.957,-46.547 10.176,-70.507c-4.487,-22.5 -19.143,-41.326 -33.619,-56.637Zm-957.242,-389.671c-26.189,27.122 -46.669,60.559 -68.954,91.807c-14.265,20.009 -29.67,39.096 -47.776,54.763c-11.705,10.102 -24.518,16.834 -37.894,22.392l0,1.527c11.795,-4.831 23.174,-10.599 33.862,-18.879c17.888,-13.852 32.89,-32.061 46.797,-50.68c25.203,-33.761 46.906,-71.237 75.859,-100.93l-1.894,-0Zm1072.53,346.918c-37.703,-35.964 -84.723,-61.467 -129.626,-83.808c-23.021,-11.441 -46.777,-20.29 -71.513,-25.575c-24.749,-5.292 -50.016,-7.07 -75.136,-8.453c-51.2,-2.851 -103.501,-3.556 -151.981,-24.631c-23.424,-10.173 -42.938,-26.33 -62.938,-43.027c-20.877,-17.424 -41.625,-35.035 -60.237,-55.534c-17.094,-18.842 -35.123,-35.424 -54.169,-51.645c-20.627,-17.575 -40.704,-35.979 -60.845,-54.245l-1.971,-0c15.987,14.45 31.968,28.879 48.032,43.207c19.296,17.208 39.629,32.962 57.625,51.941c17.626,18.619 34.816,36.778 54.061,53.302c19.251,16.516 38.426,34.048 59.802,46.929c42.233,25.438 91.027,30.571 137.997,33.315c53.561,3.124 106.822,4.341 157.83,25.257c25.178,10.318 49.171,24.063 72.986,37.829c22.483,13.01 44.505,26.914 65.004,43.646c39.296,32.098 75.196,77.712 74.234,135.598c-0.507,30.55 -13.318,55.836 -31.098,77.879c-17.664,21.893 -36.652,42.496 -54.784,63.906c-35.494,41.914 -65.024,88.655 -94.585,135.905c-29.888,47.795 -64.307,91.555 -105.133,127.81c-41.619,36.958 -90.278,56.769 -140.358,74.013c-47.706,16.418 -97.05,29.286 -142.765,52.085c-15.315,7.637 -34.221,18.728 -36.563,39.558c-1.876,16.656 13.516,29.048 26.451,37.82l2.957,-0c-1.722,-1.239 -3.456,-2.479 -5.178,-3.78c-12.077,-9.193 -25.965,-20.038 -22.246,-38.689c2.732,-13.703 15.577,-22.324 25.67,-28.477c10.957,-6.688 22.842,-11.892 34.483,-16.865c24.096,-10.293 49.517,-17.439 74.202,-25.708c25.785,-8.63 51.609,-17.148 77.158,-26.63c45.69,-16.946 86.791,-41.934 123.296,-77.397c38.247,-37.143 69.235,-80.869 98.035,-127.353c30.9,-49.87 63.936,-96.409 101.53,-140.064c16.845,-19.564 35.693,-38.417 50.15,-60.372c12.959,-19.696 19.686,-42.196 20.092,-66.736c0.827,-49.904 -28.495,-90.492 -60.469,-121.011Zm323.547,-231.164c-43.227,-34.178 -82.953,-73.303 -119.875,-115.754l-1.766,-0c28.164,32.522 57.945,63.245 89.867,91.051c18.805,16.373 39.452,30.305 57.788,47.275c8.524,7.87 15.924,18.454 13.627,31.565c-1.195,6.804 -5.906,13.378 -9.313,19.023c-4.539,7.502 -9.726,14.515 -14.867,21.513c-16.048,21.867 -34.555,41.184 -52.766,60.696c-18.297,19.584 -34.375,42.487 -53.954,60.343c-20.984,19.167 -44.554,38.36 -73.093,32.841c-12.43,-2.392 -24.258,-11.464 -35.125,-18.333c-11.687,-7.387 -23.102,-15.292 -34.446,-23.328c-44.952,-31.795 -89.874,-63.28 -136.043,-92.829c-43.802,-28.023 -88.352,-57.795 -137.44,-72.108c-50.989,-14.868 -104.698,-7.589 -156.365,-17.907c-27.392,-5.472 -51.469,-16.372 -75.642,-31.68c-22.765,-14.414 -44.909,-30.06 -66.707,-46.267c-26.714,-19.857 -52.794,-40.759 -78.765,-61.855l-2.125,-0c35.77,29.023 71.783,57.694 109.172,84.038c21.004,14.804 42.873,31.313 65.862,41.876c23.309,10.706 48.173,16.365 73.126,19.317c26.247,3.111 52.685,3.341 79.015,5.22c26.733,1.915 52.333,7.438 77.664,17.331c25.446,9.95 49.267,24.876 72.934,39.182c23.239,14.062 46.151,28.778 68.935,43.733c45.542,29.923 89.24,63.23 134.802,93.045c18.289,11.967 37.726,26.56 59.875,22.359c22.781,-4.308 40.109,-19.795 57.593,-35.737c9.68,-8.841 17.422,-19.533 25.962,-29.67c8.944,-10.671 18.39,-20.794 27.827,-30.888c18.257,-19.563 36.446,-39.075 52.531,-60.999c10.58,-14.407 28.564,-34.221 21.125,-54.504c-6.429,-17.532 -26.507,-28.353 -39.413,-38.549Zm182.532,-72.252c-41.673,0.72 -83.212,5.595 -124.672,-1.612c-19.664,-3.392 -37.821,-10.844 -55.65,-20.708c-11.562,-6.4 -22.827,-13.183 -33.421,-21.182l-2.071,-0c8.586,6.538 17.618,12.29 26.953,17.856c15.672,9.338 31.891,17.316 49.094,22.277c38.891,11.16 80.25,7.099 119.851,5.429c20.735,-0.879 41.509,-1.476 62.173,0.9c21.453,2.476 42.68,7.099 63.602,12.938c27.561,7.697 54.491,18.014 80.913,29.758l0,-1.462c-59.758,-26.366 -122.108,-45.331 -186.772,-44.194Zm-225.282,99.756c-7.954,-19.562 -21.954,-35.575 -34.845,-51.026c-6.531,-7.841 -12.561,-16.416 -19.367,-23.94c-9.36,-10.339 -18.953,-19.793 -27.758,-30.794c-10.249,-12.78 -21.288,-24.704 -31.491,-37.498l-1.743,-0c11.735,14.926 24.64,28.649 36.375,43.596c7.954,10.123 17.235,18.54 25.797,27.986c7.227,7.978 13.656,17.295 20.602,25.625c14.43,17.331 28.929,35.561 35.43,58.659c3.702,13.161 2.756,24.379 -1.501,37.072c-4.211,12.564 -9.929,24.437 -16.39,35.684c-12.133,21.16 -28.039,39.376 -45.469,55c-9.789,8.77 -20,17.194 -31.992,21.55c-13.477,4.91 -27.204,6.12 -40.96,2.167c-23.352,-6.717 -46.555,-19.058 -68.368,-30.449c-22.696,-11.865 -44.429,-25.963 -65.78,-40.622c-42.72,-29.304 -84,-61.387 -128.672,-86.926c-20.806,-11.901 -42.534,-21.794 -65.235,-27.964c-10.342,-2.83 -20.909,-4.5 -31.507,-5.343c-5.837,-0.475 -11.699,-0.439 -17.53,-0.23c-5.568,0.194 -9.44,-3.377 -14.726,-3.636c-26.816,-1.339 -53.709,-1.923 -80.192,-7.294c-25.702,-5.227 -50.17,-16.826 -73.562,-29.621c-37.606,-20.584 -72.358,-47.167 -105.907,-75.254l-2.073,-0c33.26,27.842 67.609,54.036 104.697,75.002c21.453,12.132 44.019,22.824 67.411,29.117c24.141,6.466 49.172,7.589 73.863,8.734c6.246,0.281 13.427,-0.403 19.392,1.706c4.064,1.419 6.79,2.895 11.097,2.671c13.472,-0.756 27.008,0.756 40.256,3.492c24.711,5.084 48.295,15.927 70.752,28.376c44.89,24.854 86.215,57.16 128.73,86.644c41.005,28.404 83.821,52.38 129.267,70.258c20.407,8.014 40.985,5.976 60.54,-4.414c8.382,-4.464 16.195,-12.304 23.428,-18.792c8.789,-7.876 16.946,-16.624 24.579,-25.905c13.993,-17.05 25.383,-36.72 33.578,-58.047c3.516,-9.136 6.547,-17.668 6.063,-27.684c-0.469,-9.72 -3.212,-19.108 -6.789,-27.9Zm-473.22,226.937c-83.187,-45.145 -177.99,-31.392 -266.067,-17.489c-20.691,3.269 -42.003,8.77 -62.957,6.927c-22.105,-1.951 -40.121,-14.242 -53.971,-33.315c-15.712,-21.657 -22.118,-47.39 -31.181,-72.928c-7.91,-22.256 -16.908,-43.985 -26.924,-65.11c-20.717,-43.754 -46.72,-84.182 -78.08,-118.951c-16.263,-18.036 -35.079,-32.22 -53.031,-47.916c-8.486,-7.423 -17.017,-14.767 -25.92,-21.413l-2.285,-0c12.896,9.418 24.941,20.405 37.114,30.974c10.125,8.784 20.717,16.769 30.451,26.122c9.613,9.23 18.483,19.454 27.111,29.844c33.779,40.68 59.75,89.46 80.186,140.011c17.798,44.035 26.559,102.075 68.703,125.734c17.107,9.601 36.346,9.828 54.861,7.07c23.187,-3.477 46.342,-7.38 69.549,-10.778c45.952,-6.711 92.435,-11.268 138.681,-6.027c47.885,5.415 99.463,23.273 136.864,58.693c17.684,16.769 29.991,40.394 31.981,66.55c2.266,29.742 -8.179,59.792 -18.733,86.362c-10.688,26.893 -23.724,51.75 -36.851,77.159c-3.117,6.039 -5.491,13.008 -10.483,17.367c-3.424,2.998 -5.139,6.416 -7.469,10.556c-6.765,12.006 -14.009,23.65 -21.561,35.033c-14.893,22.439 -31.54,43.321 -49.268,62.921c-9.088,10.055 -18.368,19.046 -28.947,27.043c-10.841,8.183 -19.373,19.047 -30.278,27.204c-10.503,7.848 -21.127,15.485 -32.051,22.577c-12.781,8.298 -27.418,14.091 -41.012,20.453c-24.985,11.699 -50.329,22.404 -75.859,32.467c-50.144,19.766 -105.318,29.787 -158.157,33.75c-50.624,3.787 -101.452,-3.067 -150.688,-16.357c-79.456,-21.436 -154.348,-60.258 -227.251,-101.021c-37.344,-20.883 -78.982,-32.107 -119.827,-40.5c-33.498,-6.881 -67.405,-10.854 -101.376,-13.289l0,1.46c45.408,3.304 90.611,9.491 134.982,21.11c25.94,6.786 53.677,14.485 77.581,27.958c22.298,12.56 44.704,24.855 67.328,36.625c88.295,45.941 181.952,83.285 280.045,86.282c104.55,3.19 205.862,-33.118 300.474,-80.078c11.635,-5.775 22.342,-12.736 33.107,-20.409c10.592,-7.567 21.325,-14.747 30.201,-24.775c8.218,-9.273 18.452,-15.54 27.584,-23.555c9.856,-8.649 18.637,-19.749 27.284,-29.865c15.961,-18.659 30.592,-38.725 44.032,-59.757c3.404,-5.325 6.688,-10.749 9.92,-16.207c3.289,-5.563 6.099,-12.577 10.444,-17.173c3.328,-3.516 5.293,-4.975 7.552,-9.607c3.565,-7.321 7.36,-14.503 11.156,-21.674c12.774,-24.161 24.505,-48.56 34.195,-74.54c9.165,-24.558 16.429,-50.555 15.193,-77.52c-2.24,-48.867 -41.068,-78.855 -76.352,-97.998Zm158.221,21.939c-10.694,-16.137 -23.808,-30.042 -38.048,-42.135c-30.969,-26.28 -68.096,-42.278 -105.305,-53.193c-43.898,-12.867 -89.498,-19.016 -134.752,-20.564c-26.938,-0.936 -53.876,-0.964 -80.749,-3.484c-27.2,-2.528 -53.952,-9.735 -79.424,-20.83c-48.608,-21.197 -78.323,-72.014 -112.685,-113.501c-33.811,-40.853 -69.574,-79.661 -107.546,-115.538c-8.249,-7.805 -16.64,-15.423 -25.107,-22.889l-2.099,-0c33.766,29.794 65.83,61.949 96.378,95.926c17.779,19.771 34.969,40.197 51.795,61.012c16.563,20.477 31.801,42.711 49.785,61.647c35.245,37.137 85.236,51.537 132.154,55.915c26.842,2.498 53.83,2.354 80.736,3.269c26.79,0.929 53.094,4.147 79.578,8.683c78.092,13.327 163.59,45.122 205.952,126.353c14.214,27.247 16.435,57.567 4.403,86.555c-10.637,25.637 -25.127,48.945 -40.455,71.235c-14.63,21.277 -31.11,41.229 -44.185,63.783c-13.965,24.116 -26.17,49.086 -41.351,72.324c-16.057,24.584 -32.544,48.814 -50.771,71.429c-8.057,9.994 -16.205,19.881 -24.595,29.522c-4.243,4.878 -8.602,9.624 -13.005,14.317c-4.134,4.405 -9.267,6.496 -13.414,10.732c-35.987,36.746 -80.896,59.362 -126.535,76.176c-22.278,8.217 -44.953,15.037 -67.596,21.848c-4.948,1.487 -9.933,2.857 -14.855,4.5c-3.987,1.336 -7.437,3.894 -11.75,5.036c-12.967,3.42 -25.875,7.12 -38.675,11.278c-11.636,3.778 -22.996,7.444 -34.842,10.362c-4.013,0.992 -6.938,1.44 -10.31,3.964c-5.53,4.13 -15.22,4.675 -21.626,6.397c-26.816,7.243 -53.69,14.31 -81.158,17.448c-52.858,6.054 -105.14,-9.924 -154.951,-28.284c-51.942,-19.143 -101.344,-45.799 -151.686,-69.424c-11.783,-5.53 -23.584,-10.988 -35.347,-16.551c-12.986,-6.135 -25.268,-13.948 -38.157,-20.346c-4.48,-2.216 -9.53,-2.488 -14.125,-4.834c-4.813,-2.461 -9.67,-4.808 -14.547,-7.128c-12.512,-5.959 -25.235,-11.33 -38.08,-16.313c-40.762,-15.812 -83.123,-26.236 -125.997,-31.026l0,1.451c44.858,5.07 88.954,16.445 131.578,33.265c12.768,5.046 25.363,10.69 37.798,16.692c4.768,2.311 9.549,5.485 14.483,7.295c6.515,2.407 12.832,4.078 19.123,7.523c22.599,12.375 45.581,23.177 68.768,34.085c50.311,23.685 99.764,50.414 151.904,68.878c48.583,17.192 97.927,31.405 149.236,26.149c25.408,-2.61 50.393,-9.167 75.155,-15.795c9.395,-2.513 21.645,-3.312 29.785,-9.378c4.391,-3.287 11.949,-3.55 17.063,-4.824c6.982,-1.75 13.638,-3.92 20.467,-6.293c11.674,-4.043 23.482,-7.481 35.328,-10.749c5.498,-1.521 11.123,-2.69 16.544,-4.491c0.864,-0.29 2.362,-1.601 3.078,-2.146c2.957,-2.205 7.303,-2.714 10.656,-3.726c22.688,-6.812 45.344,-13.641 67.738,-21.567c42.547,-15.058 83.846,-35.113 119.309,-66.085c4.512,-3.94 8.845,-8.123 13.113,-12.376c3.565,-3.56 7.674,-4.755 11.156,-8.359c9.612,-9.949 18.707,-20.522 27.641,-31.244c16.858,-20.26 33.408,-41.23 47.994,-63.643c15.469,-23.747 30.445,-47.101 43.808,-72.43c13.446,-25.47 29.446,-48.067 45.907,-71.068c14.515,-20.286 28.538,-41.018 40.397,-63.439c11.673,-22.061 20.48,-44.826 19.174,-71.017c-1.107,-22.376 -12.697,-42.925 -24.256,-60.379Zm-1061.79,-392.134c-21.875,24.746 -39.341,53.978 -58.438,81.576c-20.403,29.52 -43.904,53.726 -72.717,70.085l0,1.62c26.592,-14.904 48.941,-36.425 68.237,-63.087c21.734,-30.024 40.435,-62.892 64.749,-90.194l-1.831,-0Zm18.157,64.634c-22.515,32.22 -40.314,68.696 -66.33,97.697c-22.528,25.107 -52.23,39.377 -82.982,46.62l0,1.354c14.752,-3.514 29.19,-8.611 43.002,-15.466c19.577,-9.72 35.827,-24.631 50.124,-42.415c31.578,-39.29 52.064,-88.157 87.469,-123.826c12.045,-12.132 24.89,-21.549 38.266,-28.598l-2.624,-0c-26.784,14.551 -48.519,38.282 -66.925,64.634Zm1073.2,308.217c-34.541,-36.525 -77.728,-63.352 -120.416,-85.535c-45.165,-23.465 -95.155,-30.938 -144.288,-34.862c-25.85,-2.052 -51.744,-3.075 -77.6,-4.918c-24.954,-1.778 -49.971,-3.708 -74.061,-11.729c-42.176,-14.025 -78.099,-44.503 -110.374,-77.234c-16.084,-16.315 -31.444,-33.502 -46.925,-50.537c-7.783,-8.546 -15.437,-17.258 -23.783,-25.106c-10.048,-9.468 -20.704,-18.296 -28.997,-29.636c-4.519,-6.134 -11.406,-10.879 -16.923,-15.868c-6.937,-6.279 -13.894,-12.572 -20.832,-18.85c-6.796,-6.163 -13.561,-12.391 -20.358,-18.576l-1.997,-0c15.815,14.429 31.642,28.807 47.514,43.157c9.203,8.316 16.499,17.978 25.562,26.525c10.079,9.489 20.127,18.856 29.58,29.138c30.343,32.983 59.751,67.313 93.779,95.544c33.799,28.051 71.61,46.562 113.485,51.466c51.514,6.012 103.463,5.428 154.893,12.657c26.534,3.708 52.774,9.979 78.099,19.771c23.962,9.252 46.957,22.875 68.992,36.85c21.984,13.939 42.893,29.966 62.458,47.916c20.333,18.668 34.521,41.43 41.017,70.418c13.594,60.626 -29.964,110.442 -60.499,153.254c-32.23,45.194 -62.797,91.864 -93.497,138.384c-7.687,11.646 -15.392,23.292 -23.117,34.902c-4.461,6.698 -8.999,13.033 -14.259,18.975c-4.058,4.579 -8.679,8.842 -11.604,14.476c-6.073,11.707 -16.345,21.269 -24.793,30.911c-9.927,11.33 -20.352,21.4 -31.559,31.061c-9.843,8.489 -19.084,17.314 -29.696,24.626c-11.481,7.91 -23.468,14.871 -35.609,21.393c-24.672,13.262 -50.464,22.35 -76.608,31.113c-50.112,16.787 -101.031,30.192 -150.752,48.481c-22.56,8.296 -44.653,18.025 -65.607,30.673c-14.656,8.842 -36.063,20.742 -22.329,41.747c7.142,10.909 19.021,16.763 29.862,21.455c3.815,1.652 7.591,3.366 11.373,5.107l4.691,-0c-0.422,-0.202 -0.864,-0.421 -1.286,-0.625c-11.808,-5.564 -23.949,-9.061 -34.656,-17.278c-5.984,-4.58 -13.017,-12.341 -13.594,-20.963c-0.717,-10.774 9.031,-16.61 15.936,-21.366c11.162,-7.664 22.906,-14.176 34.861,-20.1c47.565,-23.537 99.002,-36.597 148.909,-52.022c25.638,-7.92 51.187,-16.235 76.48,-25.454c23.648,-8.603 46.163,-20.18 67.923,-33.705c21.453,-13.334 41.517,-30.588 59.674,-49.115c8.857,-9.033 17.088,-18.826 25.395,-28.485c8.614,-9.993 15.174,-21.094 23.878,-30.928c17.895,-20.206 31.949,-45.624 47.047,-68.52c15.609,-23.652 31.225,-47.284 47.084,-70.725c16.589,-24.522 33.511,-48.771 50.861,-72.607c14.727,-20.232 29.293,-40.113 39.117,-64.089c18.113,-44.192 9.21,-97.682 -22.451,-131.167Zm-296.839,-75.484c-43.84,-1.865 -88.089,0.547 -131.776,-4.536c-22.067,-2.563 -44.019,-7.466 -64.428,-17.525c-21.306,-10.476 -37.095,-27.439 -51.45,-47.649c-16.403,-23.155 -31.283,-47.635 -47.155,-71.244c-14.784,-21.989 -30.983,-41.731 -48.327,-61.121c-8.281,-9.266 -16.224,-18.936 -24.595,-28.109c-9.702,-10.613 -20.422,-19.965 -30.848,-29.657c-13.574,-12.636 -27.168,-25.236 -40.998,-37.526l-2.016,-0c15.046,13.32 29.785,27.072 44.55,40.781c19.578,18.194 37.095,37.721 55.079,57.83c18.746,20.959 35.667,42.754 51.5,66.643c14.624,22.061 28.608,44.626 43.872,66.147c13.312,18.77 28.218,33.573 47.533,43.999c17.907,9.662 37.639,14.443 57.184,17.503c42.407,6.61 85.818,4.241 128.519,5.436c90.137,2.513 188.019,18.648 250.662,99.947c7.674,9.967 13.939,21.181 17.894,33.643c4.532,14.291 3.399,29.339 0.954,43.964c-4.691,28.089 -17.286,53.824 -29.869,78.256c-12.857,24.971 -28.397,48.693 -43.36,72.098c-14.918,23.344 -31.929,44.869 -44.358,70.022c-6.119,12.375 -14.88,23.125 -22.183,34.655c-8.544,13.5 -17.587,25.445 -27.859,37.32c-18.509,21.4 -37.427,42.415 -58.976,59.949c-21.171,17.237 -43.11,31.588 -66.592,44.456c-24.109,13.217 -49.517,23.159 -74.957,32.607c-48.844,18.14 -98.873,31.982 -149.26,43.312c-54.208,12.191 -110.535,26.834 -165.536,12.015c-46.138,-12.437 -91.578,-23.625 -136,-42.872c-47.104,-20.427 -92.685,-45.037 -138.97,-67.686c-40.762,-19.951 -82.342,-43.339 -126.496,-51.574c-3.987,-0.738 -7.987,-1.231 -12,-1.688c-3.392,-0.377 -8.314,0.088 -11.296,-1.888c-0.845,-0.554 -2.131,-1.82 -3.098,-2.137c-10.214,-3.409 -21.433,-4.333 -32,-5.73c-12.217,-1.626 -24.39,-3.261 -36.435,-6.065c-0.857,-0.202 -1.721,-0.386 -2.579,-0.571l0,1.381c4.954,1.045 9.894,2.275 14.784,3.171c12.966,2.4 26.093,3.579 39.11,5.652c5.594,0.897 13.12,1.135 18.061,4.403c3.091,2.039 3.815,2.533 7.469,2.716c13.779,0.72 27.405,3.78 40.717,7.769c24.595,7.384 47.968,19.274 71.296,30.533c24.531,11.848 49.03,23.688 73.389,35.975c47.705,24.055 95.628,49.183 145.811,65.989c24.819,8.304 50.208,14.228 75.424,20.724c25.734,6.617 50.611,10.555 77.094,9.29c25.971,-1.249 51.437,-7.471 76.922,-12.728c25.549,-5.263 50.989,-11.205 76.269,-17.884c49.92,-13.183 99.11,-29.814 146.982,-50.537c46.234,-20.006 89.19,-50.396 125.542,-88.278c18.042,-18.801 36.48,-38.575 50.695,-61.207c7.257,-11.557 16.429,-22.333 22.771,-34.445c7.334,-14.018 14.509,-27.105 23.424,-39.963c30.438,-43.912 61.094,-90.344 82.874,-140.546c9.58,-22.061 16.966,-46.582 16.646,-71.42c-0.269,-21.323 -11.149,-40.36 -23.11,-55.881c-58.669,-76.162 -151.872,-94.133 -236.5,-97.719Zm96.884,104.521c-7.988,-5.976 -15.405,-8.385 -23.898,-12.989c-10.618,-5.731 -21.837,-9.951 -33.21,-13.271c-46.009,-13.43 -95.244,-6.997 -141.401,2.091c-25.498,5.028 -50.528,12.762 -75.405,20.812c-12.064,3.92 -24.09,7.928 -36.173,11.831c-13.843,4.464 -26.713,10.564 -41.357,7.135c-21.811,-5.113 -39.046,-22.552 -50.784,-43.189c-12.448,-21.868 -17.03,-47.162 -21.388,-72.261c-8.653,-50.011 -21.389,-96.998 -44.237,-141.134c-35.482,-68.573 -88.544,-125.561 -151.469,-160.913l-2.822,-0c67.59,37.282 123.2,99.454 159.449,174.096c4.877,10.037 9.299,20.333 13.44,30.794c1.856,4.745 1.735,10.196 3.687,14.746c3.424,7.949 6.297,16.106 8.768,24.487c7.744,26.28 10.778,54.051 16.153,81c8.154,40.819 28.627,81.195 66.464,93.096c9.037,2.83 18.08,2.32 27.034,-0.545c12.877,-4.131 25.734,-8.631 38.611,-12.867c24.813,-8.158 49.638,-16.206 74.925,-22.307c49.638,-11.988 103.328,-19.107 153.357,-6.258c12.313,3.146 24.249,7.962 35.718,13.886c2.714,1.408 6.899,5.274 9.862,5.467c6.17,0.405 11.245,5.432 16.256,9.177c20.231,15.1 39.156,34.594 44.877,62.191c5.991,28.915 -1.337,59.809 -10.4,86.845c-9.389,28.018 -22.31,54.369 -35.993,79.972c-12.244,22.912 -27.86,44.656 -42.688,65.495c-13.984,19.644 -29.248,38.057 -46.087,54.615c-8.499,8.368 -18.189,15.205 -26.137,24.198c-9.562,10.792 -21.236,18.824 -32.564,27.061c-19.609,14.247 -40.032,27.052 -61.113,38.32c-43.795,23.406 -90.592,37.775 -138.106,47.716c-26.829,5.607 -52.813,12.138 -80.237,12.709c-27.36,0.57 -55.168,-2.171 -82.156,-7.102c-45.748,-8.359 -91.124,-24.213 -134.701,-41.756c-46.611,-18.756 -90.611,-44.307 -135.469,-67.746c-19.955,-10.424 -40.032,-20.083 -60.877,-28.037c-10.451,-3.991 -21.433,-6.866 -32.23,-9.308c-4.64,-1.046 -9.453,-1.179 -14.157,-1.293c-6.157,-0.158 -10.957,-1.67 -16.768,-3.524c-3.795,-1.204 -8.512,-0.799 -12.422,-1.125c-6.58,-0.563 -13.14,-1.168 -19.719,-1.774c-12.032,-1.117 -24.064,-2.305 -36.109,-3.464c-17.017,-1.635 -34.028,-3.2 -51.078,-4.527l0,1.423c19.232,1.504 38.438,3.305 57.638,5.169c13.146,1.265 26.266,2.532 39.412,3.727c6.56,0.598 13.139,1.151 19.699,1.687c5.862,0.475 10.438,3.797 16.441,3.805c25.716,0.027 50.58,10.882 74.298,21.147c26.234,11.355 51.514,25.849 76.922,39.384c23.513,12.533 46.982,26.596 71.385,36.712c24.346,10.09 48.864,19.275 73.69,27.73c50.374,17.139 100.941,28.758 153.657,30.243c25.876,0.729 50.266,-3.253 75.495,-9.009c24.301,-5.545 48.659,-10.442 72.691,-17.482c43.968,-12.884 85.862,-33.143 125.062,-58.965c9.876,-6.504 19.533,-13.439 29.063,-20.575c4.889,-3.666 9.721,-7.444 14.528,-11.25c5.517,-4.368 9.376,-10.786 14.861,-15.24c17.785,-14.503 33.9,-31.43 48.716,-49.668c31.175,-38.381 58.823,-82.238 80.077,-128.408c10.983,-23.872 20.615,-49.165 25.626,-75.552c4.288,-22.57 5.491,-50.168 -4.794,-71.031c-9.696,-19.671 -25.568,-33.997 -41.913,-46.197Zm828.016,-311.362c-28.272,-12.708 -59.476,-19.455 -89.718,-21.975c-37.031,-3.074 -74.196,0.475 -111.258,0.216c-33.499,-0.245 -65.312,-7.106 -95.968,-22.557c-23.141,-11.65 -44.423,-27.634 -63.672,-46.21l-1.868,-0c27.906,27.022 59.906,48.254 95.328,60.242c47.055,15.941 97.047,8.561 145.375,8.561c47.875,0 99.648,7.661 142.243,34.121c9.936,6.163 19,13.954 27.196,22.774c3.561,3.837 8.601,9.158 7.624,15.487c-0.719,4.68 -4.64,8.546 -7.632,11.448c-5.821,5.623 -11.759,11.073 -18,16.099c-20.431,16.438 -46.008,22.378 -69.884,29.448c-25.211,7.445 -50.797,13.774 -76.179,20.491c-12.008,3.168 -24.071,6.012 -36.203,8.475c-5.376,1.087 -11.978,1.072 -17,3.427c-0.58,0.281 -1.282,1.231 -1.54,1.497c-2.804,2.895 -7.601,2.967 -11.172,3.845c-43.39,10.721 -79.827,37.145 -113.093,69.696c-33.265,32.572 -62.501,69.981 -94.743,103.801c-8.563,8.966 -17.257,17.93 -26.742,25.646c-4.499,3.674 -8.812,7.612 -13.336,11.25c-4.499,3.604 -10.328,5.591 -14.187,9.933c-6.453,7.311 -17.032,11.847 -25.032,16.857c-9.469,5.941 -20.499,12.286 -31.545,8.701c-10.916,-3.552 -18.314,-21.762 -23.672,-32.062c-5.938,-11.426 -11.133,-23.344 -16.727,-34.999c-4.657,-9.686 -9.658,-19.336 -15.649,-28.073c-3.312,-4.833 -6.82,-9.385 -10.617,-13.745c-3.705,-4.255 -5.561,-10.09 -9.344,-14.54c-15.501,-18.259 -34.15,-32.501 -53.357,-45.281c-22.182,-14.724 -44.48,-29.318 -66.937,-43.502c-42.867,-27.036 -86.125,-51.667 -135.386,-58.781c-49.664,-7.171 -99.891,-5.011 -149.593,-12.218c-7.316,-1.052 -14.528,-1.916 -21.517,-4.709c-6.579,-2.643 -12.922,-5.731 -19.623,-7.985c-13.843,-4.622 -26.534,-9.756 -39.123,-17.964c-25.721,-16.783 -49.472,-38.074 -73.254,-58.075c-42.579,-35.806 -84.282,-72.936 -126.106,-109.865l-2.047,-0c34.7,30.6 69.311,61.351 104.37,91.426c21.504,18.439 43.047,36.964 65.223,54.367c18.841,14.767 37.561,29.779 59.469,38.131c11.11,4.212 22.265,7.927 33.324,12.37c10.362,4.147 22.708,4.521 33.549,5.997c25.082,3.37 50.394,3.967 75.584,5.026c25.863,1.109 51.712,2.779 77.197,8.064c26.214,5.436 50.234,16.646 74.086,29.765c22.874,12.585 45.069,26.683 67.111,41.025c21.587,14.047 43.693,27.49 64.326,43.279c9.882,7.56 19.136,16.085 27.77,25.38c4.365,4.716 7.027,9.423 10.304,15.066c2.786,4.799 7.075,8.65 10.379,13.061c15.032,19.986 24.04,44.93 35.501,67.5c7.163,14.116 16.805,36.598 34.241,33.714c8.188,-1.353 15.501,-5.43 22.697,-9.842c4.116,-2.514 8.141,-5.222 12.225,-7.788c3.813,-2.407 8.29,-3.886 11.384,-7.383c4.382,-4.957 10.484,-7.734 15.616,-11.636c4.596,-3.481 8.9,-7.489 13.336,-11.233c8.767,-7.384 16.93,-15.487 25.016,-23.819c16.407,-16.927 31.97,-34.875 47.602,-52.7c31.102,-35.439 62.867,-70.683 101.211,-96.099c21.899,-14.537 44.626,-22.802 69.374,-28.512c3.165,-0.741 4.602,-3.729 8.236,-4.32c6.257,-1.037 12.484,-2.289 18.694,-3.593c13.086,-2.736 26.062,-6.098 39.008,-9.597c25.314,-6.819 50.829,-13.039 75.946,-20.722c22.625,-6.926 44.43,-13.269 63.758,-28.829c7.632,-6.134 16.117,-12.952 21.757,-21.427c5.282,-7.963 1.195,-13.867 -3.867,-19.829c-14.007,-16.452 -31.835,-27.95 -50.469,-36.316Zm-944.695,300.956c-49.907,-3.479 -98.566,12.146 -142.861,37.249c-9.292,5.256 -18.854,8.349 -28.262,13.43c-10.752,5.782 -21.971,10.406 -33.472,13.869c-22.778,6.872 -47.11,6.995 -68.858,-4.027c-21.689,-11.003 -37.216,-35.841 -46.201,-59.976c-8.64,-23.203 -11.629,-48.709 -13.971,-73.549c-1.127,-11.859 -2.029,-23.76 -3.156,-35.626c-0.467,-5.011 -0.985,-10.022 -1.593,-15.012c-1.063,-8.741 -3.987,-16.963 -4.467,-25.769c-0.64,-11.585 -3.488,-21.96 -7.693,-32.501c-2.637,-6.652 -6.061,-12.693 -8.525,-19.461c-2.08,-5.753 -3.91,-11.535 -6.317,-17.107c-2.579,-5.976 -6.56,-11.074 -9.561,-16.784c-2.938,-5.587 -5.453,-11.476 -8.359,-17.107c-0.422,-0.806 -2.848,-3.247 -3.456,-3.931c-6.733,-7.618 -1.229,-2.959 -3.949,-7.654c-3.001,-5.148 -6.784,-9.504 -9.408,-15.004c-2.233,-4.68 -6.905,-9.058 -10.035,-13.032c-3.917,-4.954 -7.961,-9.807 -12.077,-14.566c-8.748,-10.217 -18.028,-19.793 -27.673,-28.886c-24.749,-23.307 -53.107,-42.732 -83.373,-56.038l-5.421,-0c33.031,13.694 64.186,34.697 90.144,59.148c18.669,17.597 37.389,37.85 50.919,60.732c2.438,4.147 4.832,8.46 7.206,12.535c2.701,4.659 6.438,8.107 8.902,13.111c6.439,13.148 14.439,25.244 19.284,39.255c4.128,11.88 9.907,22.709 13.996,34.574c2.522,7.294 3.892,14.911 4.128,22.716c0.218,7.063 2.861,13.342 3.783,20.232c3.309,24.552 4.294,49.407 7.296,74.001c5.408,44.281 19.264,93.358 56.595,115.647c35.686,21.287 79.027,6.821 112.685,-12.305c4.486,-2.548 8.941,-2.143 13.344,-4.85c5.376,-3.305 10.861,-6.4 16.39,-9.388c12.512,-6.786 25.453,-12.497 38.611,-17.454c25.888,-9.756 51.751,-14.555 79.015,-15.329c48.563,-1.353 106.963,13.518 136.281,61.171c29.159,47.391 2.196,110.11 -18.483,154.82c-19.923,43.085 -46.432,81.994 -76.941,116.165c-15.795,17.701 -32.844,33.935 -50.668,48.973c-8.365,7.048 -16.954,13.737 -25.677,20.207c-10.183,7.539 -19.45,15.485 -30.291,21.795c-11.13,6.46 -22.189,13.07 -33.312,19.539c-11.303,6.565 -24.173,10.827 -36.173,15.934c-23.219,9.896 -47.52,16.277 -71.565,23.002c-103.564,28.951 -214.765,-0.792 -310.861,-46.643c-31.2,-14.881 -61.689,-31.598 -92.339,-47.841c-15.238,-8.068 -30.547,-15.994 -45.99,-23.58c-15.06,-7.401 -30.356,-15.53 -46.202,-20.496c-14.605,-4.571 -30.182,-5.537 -45.184,-7.251c-18.829,-2.154 -37.722,-3.322 -56.608,-4.255c-28.486,-1.397 -57.005,-2.091 -85.472,-3.902l0,1.442c47.341,3.033 94.842,2.988 142.08,8.139c13.075,1.424 26.266,2.778 39.155,5.686c12.89,2.919 25.075,9.309 37.159,14.942c25.26,11.786 49.996,24.934 74.7,38.092c46.407,24.714 92.813,49.421 141.767,67.077c24.48,8.825 49.44,15.847 74.637,21.438c24.563,5.439 48.972,7.787 73.958,9.095c50.81,2.655 100.358,-8.955 148.858,-25.198c11.283,-3.778 22.387,-8.217 33.267,-13.28c4.589,-2.135 9.312,-2.891 13.92,-4.587c5.843,-2.145 11.641,-6.654 17.107,-9.835c11.123,-6.496 22.208,-13.105 33.344,-19.548c10.394,-6.003 19.27,-14.458 29.05,-21.797c69.625,-52.179 127.545,-124.295 161.478,-210.972c16.288,-41.598 31.354,-92.479 3.411,-132.522c-28.032,-40.166 -74.617,-53.929 -118.016,-56.953Zm-905.875,-163.372c37.53,-6.235 73.734,-15.379 103.142,-45.54c15.751,-16.178 26.906,-37.447 38.016,-57.744c11.092,-20.289 21.856,-40.824 35.156,-59.421c31.078,-43.524 78.611,-63.785 127.481,-60.883c50.394,3.002 99.392,29.124 137.44,65.88c36.282,35.049 66.56,79.596 83.891,130.255c18.605,54.439 11.61,114.501 18.765,171.313c1.639,13.061 3.936,25.963 7.328,38.603c1.453,5.414 3.315,10.686 5.267,15.908c2.56,6.821 7.533,13.446 7.904,20.952c0.314,6.012 9.984,15.945 13.472,20.18c6.592,8.015 14.343,14.713 22.573,20.426c34.202,23.73 76.237,21.937 113.299,9c45.562,-15.908 84.564,-49.271 130.407,-64.143c46.841,-15.222 105.235,-11.338 138.438,33.857c7.367,10.036 12.167,22.113 14.375,34.857c2.592,14.942 -1.549,30.402 -2.759,45.29c-1.113,13.71 -7.117,26.569 -12.173,38.987c-4.678,11.515 -9.888,22.738 -15.417,33.759c-21.677,43.242 -49.946,81.976 -82.17,115.683c-71.654,74.917 -165.312,122.817 -263.155,128.997c-26.234,1.653 -52.589,-0.299 -78.515,-4.808c-26.029,-4.518 -50.842,-14.213 -75.578,-24.064c-26.137,-10.408 -51.904,-22 -77.235,-34.717c-10.528,-5.283 -21.152,-8.597 -31.469,-14.529c-12.153,-7.013 -24.249,-14.159 -36.358,-21.287c-25.984,-15.293 -52.032,-30.418 -78.688,-44.138c-5.843,-2.997 -11.719,-5.917 -17.626,-8.728c-6.829,-3.262 -14.797,-4 -22.093,-5.292c-13.856,-2.461 -27.859,-3.867 -41.856,-4.815c-53.926,-3.665 -107.91,1.766 -161.862,1.133l0,1.432c46.438,0.615 92.858,-3.077 139.296,-2.117c27.936,0.589 55.827,3.33 83.238,9.623c6.605,1.52 14.061,6.838 20.263,9.993c5.753,2.937 11.469,5.969 17.158,9.028c12.263,6.591 24.403,13.49 36.499,20.478c23.36,13.482 46.503,27.421 69.908,40.79c3.436,1.969 6.342,4.042 10.214,4.281c6.861,0.421 15.315,6.688 21.613,9.789c11.795,5.82 23.731,11.32 35.718,16.63c24.749,10.951 49.92,21.304 75.437,29.724c23.859,7.866 48.704,11.136 73.421,12.982c94.342,7.058 191.142,-31.826 266.125,-95.15c33.484,-28.284 63.5,-61.692 88.921,-99.202c13.063,-19.293 24.659,-39.841 34.887,-61.207c4.934,-10.301 9.42,-20.865 13.619,-31.57c4.051,-10.293 8.544,-20.418 9.139,-31.685c0.704,-13.229 3.738,-25.919 3.373,-39.262c-0.288,-10.599 -3.885,-20.989 -8.314,-30.199c-9.427,-19.634 -26.368,-34.013 -44.224,-42.662c-40.761,-19.704 -89.945,-12.411 -129.542,7.47c-44.48,22.342 -86.157,54.265 -135.405,61.682c-43.763,6.593 -87.826,-11.285 -113.594,-52.698c-2.028,-3.253 -1.689,-6.663 -3.123,-10.038c-3.11,-7.26 -6.611,-13.992 -9.267,-21.532c-4.691,-13.307 -7.296,-27.493 -9.376,-41.573c-4.435,-30.112 -5.03,-60.417 -6.202,-90.844c-1.062,-27.756 -3.577,-54.67 -11.545,-81.072c-7.187,-23.803 -18.176,-45.929 -30.547,-66.722c-5.799,-9.756 -12.077,-19.145 -18.503,-28.412c-7.437,-10.72 -16.518,-19.087 -24.921,-28.807c-15.405,-17.841 -33.53,-32.45 -52.64,-44.733c-40.858,-26.28 -87.629,-40.119 -134.688,-32.768c-28.077,4.392 -56.301,20.124 -76.941,41.818c-20.199,21.254 -34.311,48.866 -48.621,75.161c-17.626,32.4 -36.045,64.058 -66.643,82.317c-23.002,13.731 -48.967,18.9 -74.733,22.839l0,1.245Zm0,16.683c3.718,-0.295 7.424,-0.619 11.142,-1.001c5.031,-0.526 10.048,-1.267 15.06,-2.146c2.937,-0.511 5.875,-1.216 8.78,-1.915c4.084,-0.986 9.063,0.403 12.986,-0.777c21.094,-6.308 42.72,-11.672 60.781,-26.187c8.64,-6.941 15.142,-16.898 22.035,-25.841c8.339,-10.828 15.264,-22.464 21.766,-34.79c13.12,-24.926 23.796,-51.905 39.86,-74.707c30.918,-43.834 77.952,-58.479 126.016,-53.259c46.604,5.062 89.888,32.832 123.136,69.063c33.017,35.985 57.19,81.741 68.268,132.012c3.22,14.594 4.25,29.549 5.997,44.438c1.735,14.839 3.047,29.599 2.221,44.575c-0.8,14.292 -3.091,28.425 -3.718,42.754c-0.576,13.464 1.011,26.947 2.656,40.254c6.048,48.919 23.481,97.506 64.076,121.289c38.516,22.57 86.592,22.526 128.045,13.016c44.301,-10.169 80.89,-38.715 122.099,-58.016c19.796,-9.281 40.89,-15.469 62.452,-13.536c22.905,2.057 47.731,15.347 59.187,38.585c9.824,19.951 7.776,44.964 1.369,65.725c-1.651,5.326 -3.833,10.424 -6.208,15.372c-2.246,4.693 -1.843,9.36 -3.84,14.326c-4.774,11.803 -10.086,23.317 -15.756,34.593c-22.036,43.945 -51.207,82.88 -84.922,115.92c-36.659,35.902 -78.938,64.512 -124.832,82.502c-24.704,9.687 -50.342,15.372 -76.262,18.915c-28.532,3.902 -55.52,1.836 -83.578,-4.756c-26.112,-6.125 -51.142,-14.326 -75.802,-25.796c-25.235,-11.734 -49.779,-25.295 -74.073,-39.269c-23.642,-13.588 -47.315,-27.221 -70.547,-41.678c-10.33,-6.424 -20.551,-13.061 -30.624,-19.97c-5.818,-3.988 -11.079,-8.375 -16.397,-13.165c-4.64,-4.183 -10.183,-6.609 -14.407,-11.39c-6.4,-7.235 -19.34,-8.525 -27.744,-11.698c-10.08,-3.815 -19.033,-8.473 -29.881,-9.415c-26.496,-2.284 -53.888,3.235 -80.135,6.857c-27.942,3.85 -55.814,8.13 -83.833,11.039c-13.965,1.449 -27.968,2.433 -41.984,2.945c-4.467,0.165 -8.922,0.219 -13.389,0.245l0,1.442c3.373,-0.028 6.752,-0.08 10.125,-0.159c14.035,-0.333 28.045,-1.387 42.035,-2.725c26.918,-2.574 53.715,-6.671 80.531,-10.449c25.651,-3.621 51.872,-8.35 77.779,-8.271c11.296,0.036 22.733,2.698 33.127,7.533c12.013,5.58 26.374,6.775 35.84,17.463c3.2,3.63 9.331,6.038 12.998,9.352c3.987,3.594 7.661,6.723 12.064,9.807c10.893,7.631 22.048,14.775 33.267,21.79c23.188,14.509 46.925,28.055 70.535,41.677c46.265,26.693 92.934,51.118 143.904,63.703c25.92,6.398 50.637,9.931 77.216,7.751c24.723,-2.029 49.408,-7.039 73.248,-14.615c44.659,-14.177 86.048,-39.647 122.816,-71.323c33.721,-29.047 63.251,-63.994 87.315,-103.412c12.48,-20.443 23.2,-42.214 32.448,-64.723c1.843,-4.491 1.741,-10.159 3.846,-14.326c1.805,-3.559 3.399,-7.32 4.749,-11.119c3.315,-9.315 5.517,-18.851 6.554,-28.818c1.817,-17.439 -1.331,-36.923 -11.194,-50.916c-12.153,-17.226 -31.641,-26.824 -50.534,-30.287c-39.763,-7.312 -78.823,17.561 -112.839,37.32c-20.14,11.706 -40.217,23.113 -62.22,29.661c-25.127,7.488 -52.032,12.068 -78.029,9.299c-22.829,-2.424 -45.626,-7.531 -66.125,-19.555c-23.283,-13.64 -38.688,-37.177 -48.704,-64.019c-9.44,-25.278 -13.235,-53.402 -15.066,-80.597c-0.934,-14.205 0.768,-28.548 2.234,-42.646c1.594,-15.342 2.003,-30.095 0.627,-45.489c-2.438,-27.633 -5.689,-54.705 -13.28,-81.194c-6.579,-22.99 -16.909,-44.014 -28.857,-63.965c-47.079,-78.696 -134.285,-136.814 -220.039,-110.621c-24.121,7.366 -45.12,23.551 -61.574,44.547c-20.263,25.869 -32.218,59.22 -48.173,88.394c-8.794,16.106 -20.218,32.17 -32.326,45.338c-11.661,12.672 -27.328,19.368 -42.567,24.524c-7.059,2.383 -14.246,4.392 -21.389,6.501c-4.294,1.267 -8.652,-0.302 -12.793,0.807c-3.879,1.036 -7.77,1.915 -11.687,2.685c-8.55,1.678 -17.19,2.52 -25.862,3.204l0,1.318Zm0,16.401c40.966,-0.878 82.189,-1.692 120.813,-19c16.294,-7.294 29.049,-28.462 37.907,-44.669c10.95,-20.002 18.72,-42.048 27.565,-63.281c9.529,-22.918 20.761,-43.207 38.374,-59.328c20.032,-18.331 45.325,-29.441 70.951,-31.45c47.456,-3.672 95.564,22.803 129.625,58.536c35.373,37.131 59.066,87.948 64.922,142.121c3.219,29.938 2.56,59.926 0.672,89.95c-1.875,29.707 -4.608,59.484 -2.279,89.244c2.061,26.137 6.388,51.732 18.311,74.582c10.246,19.672 26.329,36.952 43.641,48.552c18.855,12.63 41.703,16.418 63.124,19.275c26.092,3.488 52.422,2.936 78.502,-0.414c48.902,-6.284 94.234,-27.184 140.358,-44.928c20.141,-7.735 44.263,-12.746 62.311,3.259c23.251,20.611 8.717,65.004 -0.813,89.966c-18.17,47.531 -47.078,91.388 -80.454,126.598c-16.967,17.893 -35.796,33.415 -55.7,46.844c-23.046,15.55 -51.161,25.093 -77.081,32.441c-100.922,28.591 -193.671,-27.967 -272.032,-94.297c-38.343,-32.466 -74.765,-69.268 -116.621,-95.994c-18.938,-12.095 -39.379,-17.482 -61.094,-14.177c-12.365,1.881 -23.047,7.699 -34.516,12.717c-12.755,5.582 -25.657,10.643 -38.675,15.338c-50.995,18.403 -104.262,29.32 -157.811,30.128l0,1.406c43.187,-0.686 86.029,-7.979 127.891,-20.259c25.421,-7.461 50.362,-16.979 74.797,-27.826c12.621,-5.599 23.814,-10.019 37.498,-11.171c13.363,-1.125 28.441,2.427 40.454,8.755c22.656,11.918 43.264,29.284 63.066,46.309c18.624,16.005 36.966,32.432 55.577,48.472c36.026,31.077 73.421,60.531 114.983,81.439c43.795,22.034 91.264,32.817 139.11,26.332c24.986,-3.384 49.421,-11.971 72.909,-21.955c22.278,-9.483 42.31,-22.447 61.421,-38.407c34.515,-28.812 63.123,-65.69 85.76,-106.717c12.147,-21.982 22.969,-45.097 29.676,-69.953c5.735,-21.287 9.594,-48.068 -5.676,-65.215c-11.872,-13.35 -29.671,-14.176 -45.197,-11.346c-22.016,4.008 -42.771,16.014 -63.77,24.055c-49.433,18.941 -100.704,31.703 -153.126,29.161c-25.703,-1.238 -52.979,-4.86 -76.704,-16.707c-21.466,-10.714 -40.263,-32.343 -52.058,-54.949c-13.613,-26.122 -17.222,-58.922 -17.734,-88.735c-0.531,-30.024 2.752,-59.994 4.249,-89.946c2.752,-54.9 -2.425,-110.253 -27.36,-158.486c-20.576,-39.83 -50.534,-73.037 -87.033,-93.902c-40.371,-23.098 -87.36,-29.816 -129.095,-7.769c-17.42,9.194 -33.638,22.939 -45.369,40.255c-12.877,19.022 -20.813,41.71 -29.6,63.353c-6.887,16.941 -14.234,33.66 -23.763,48.938c-5.172,8.295 -11.22,15.783 -17.856,22.551c-9.453,9.612 -20.692,13.78 -32.692,17.632c-32.531,10.44 -66.624,10.757 -100.358,11.319l0,1.353Zm0,19.966c18.112,0.691 36.237,0.742 54.31,1.778c24.781,1.426 49.3,7.035 74.144,7.121c10.548,0.036 20.986,-1.641 31.092,-5.033c10.56,-3.528 17.299,-9.136 24.921,-17.755c5.907,-6.674 7.923,-17.258 10.035,-25.992c3.2,-13.327 5.735,-26.863 8.436,-40.313c5.331,-26.488 11.654,-52.711 23.987,-76.269c13.12,-25.099 32.384,-41.551 57.401,-48.478c47.328,-13.133 95.111,11.722 127.975,49.291c17.28,19.757 31.155,42.963 39.654,69.063c8.141,24.998 10.515,51.926 10.33,78.379c-0.224,29.549 -4.819,58.414 -9.095,87.469c-4.454,30.234 -8.736,60.522 -12.377,90.897c-1.607,13.448 -3.047,26.913 -4.346,40.395c-1.561,16.171 -1.075,33.399 -7.526,48.269c-11.456,26.393 -45.907,19.328 -65.376,10.942c-36,-15.53 -67.546,-52.372 -108.691,-37.485c-19.968,7.225 -36.685,23.88 -51.936,39.491c-8.154,8.348 -16.096,16.945 -24.372,25.144c-4.896,4.843 -10.534,8.606 -15.392,13.57c-2.828,2.874 -5.504,5.96 -8.192,8.992c-2.323,2.645 -6.764,4.034 -9.824,5.87c-1.254,0.748 -2.643,2.531 -3.628,3.631c-3.277,3.708 -7.22,6.028 -11.22,8.577c-7.027,4.475 -14.041,8.35 -21.574,11.691c-14.067,6.231 -28.704,10.731 -43.456,14.36c-21.466,5.275 -43.36,8.034 -65.28,9.714l0,1.405c40.173,-3.103 80.64,-9.792 117.658,-28.055c9.484,-4.685 19.142,-10.317 26.451,-18.579c3.001,-3.394 8.326,-4.518 11.769,-7.604c5.92,-5.307 10.778,-11.961 16.871,-17.156c15.469,-13.148 28.909,-29.003 43.75,-43.075c15.987,-15.178 34.362,-28.573 55.687,-30.437c22.329,-1.951 42.598,13.044 61.299,24.742c16.857,10.546 34.157,20.768 53.529,23.572c17.626,2.549 35.847,-2.083 44.096,-21.085c4.282,-9.853 4.404,-21.042 5.3,-31.729c1.324,-15.926 2.982,-31.816 4.793,-47.689c3.597,-31.536 8.064,-62.965 12.672,-94.325c7.578,-51.782 15.111,-103.795 3.328,-155.621c-19.846,-87.235 -112.064,-168.746 -192.595,-126.77c-26.182,13.637 -42.202,43.819 -51.795,73.267c-5.44,16.661 -8.877,34.114 -12.327,51.415c-3.66,18.331 -6.156,38.707 -14.144,55.368c-9.094,18.972 -32.032,24.523 -49.324,26.143c-17.389,1.635 -34.989,-1.411 -52.218,-3.679c-28.205,-3.722 -56.518,-3.528 -84.8,-4.759l0,1.332Zm431.731,-54.029c3.424,31.81 -0.589,65.139 -9.107,95.587c-7.667,27.404 -19.283,56.898 -39.437,75.568c-10.752,9.948 -20.499,14.113 -34.56,12.884c-12.582,-1.108 -24.921,-11.972 -34.63,-20.618c-22.778,-20.305 -40.499,-47.198 -52.154,-77.172c-14.502,-37.318 -21.216,-78.746 -18.95,-119.477c0.563,-10.022 1.593,-19.951 3.136,-29.829c0.755,-4.803 5.331,-10.988 7.251,-15.488c2.125,-4.917 3.642,-10.706 6.893,-14.817c10.72,-13.551 24.326,-24.624 40.262,-28.599c62.016,-15.487 124.954,55.779 131.296,121.961l-0.001,-0.01c-0.098,-0.885 -1.342,-0.908 -1.261,-0.004l0.001,0.014c0.096,0.907 1.344,0.907 1.261,0Zm-1.262,-0.014c0,0.004 0.001,0.009 0.001,0.014c4.455,41.371 -3.283,85.284 -18.451,123.027c-7.078,17.629 -16.659,34.416 -29.721,47.108c-7.392,7.188 -15.501,12.163 -25.332,12.709c-12.294,0.702 -21.216,-4.57 -31.276,-11.796c-33.376,-23.905 -56.314,-62.703 -69.3,-104.253c-6.515,-20.801 -10.284,-42.668 -11.904,-64.62c-0.736,-10.109 -0.844,-20.247 -0.55,-30.377c0.333,-11.211 -0.205,-27.418 4.768,-37.318c3.514,-7.049 6.605,-14.378 9.626,-21.744c2.624,-6.415 7.827,-11.426 12.486,-15.977c8.109,-7.963 17.792,-13.572 28.109,-16.819c20,-6.329 41.344,-0.842 59.558,9.245c36.809,20.352 67.527,64.186 71.986,110.801Zm-62.57,-18.539c2.154,19.228 -1.377,47.709 -24.072,44.264c-13.433,-2.037 -23.923,-20.743 -27.014,-34.38c-3.175,-14.011 -1.389,-31.255 11.488,-38.268c17.075,-9.28 31.872,13.162 39.513,27.965c0.074,0.145 0.098,0.288 0.085,0.419Zm-1.248,0.167c0.951,8.407 1.211,16.612 -0.622,24.924c-2.733,12.391 -14.688,22.709 -26.029,16.661c-10.624,-5.66 -17.875,-18.209 -21.485,-30.406c-3.827,-12.874 -2.534,-27.864 7.533,-36.511c16.435,-14.112 33.144,10.896 40.603,25.332Zm744.933,871.255c59.078,-30.473 111.987,-77.686 139.744,-145.503c9.562,-23.361 14.624,-48.674 20.518,-73.424c6.874,-28.862 13.615,-57.771 20.553,-86.607c13.843,-57.49 28.702,-114.689 46.813,-170.667c4.624,-14.299 8.945,-28.793 16.187,-41.711c7.672,-13.704 16.718,-26.993 26.117,-39.219c7.687,-9.991 16.195,-19.186 24.726,-28.238c9.384,-9.967 18.477,-20.848 28.468,-30.006c40.049,-36.72 74.212,-81.387 112.166,-120.832c19.108,-19.843 38.897,-38.671 60.593,-54.843c21.664,-16.135 45.577,-24.523 70.227,-32.817c25.632,-8.633 50.922,-17.28 77.25,-22.839c26.148,-5.515 52.468,-9.878 78.304,-17.114c21.68,-6.106 43.149,-13.291 64.688,-19.973c7.29,-2.253 14.688,-4.478 22.062,-6.854l0,-1.253c-13.555,4.414 -27.297,8.251 -40.718,12.427c-25.696,8.021 -51.29,16.229 -77.493,21.888c-26.407,5.71 -53.022,10.073 -79.211,17.071c-24.992,6.66 -50.038,16.503 -74.453,25.503c-45.211,16.668 -81.968,56.037 -115.813,92.196c-18.805,20.111 -37.014,40.889 -55.374,61.508c-18.266,20.496 -37.844,39.041 -56.485,58.992c-17.257,18.492 -34.968,36.229 -49.547,57.587c-7.562,11.082 -15.172,22.526 -21.163,34.795c-6.071,12.42 -9.673,26.86 -13.938,40.149c-17.962,55.994 -32.477,113.308 -46.273,170.754c-6.938,28.88 -13.679,57.814 -20.566,86.713c-6.22,26.121 -12.153,51.854 -23.02,76.122c-18.976,42.381 -49.536,76.728 -84.064,103.174c-16.749,12.823 -34.624,23.722 -53.114,33.021l2.816,0Zm-744.933,-871.255c-0.009,-0.079 -0.018,-0.156 -0.027,-0.233c-0.09,-0.893 1.158,-0.893 1.267,0l0.008,0.066c-0.059,0.586 -0.85,0.948 -1.179,0.301c-0.023,-0.044 -0.046,-0.089 -0.069,-0.134Zm777.554,871.255c4.032,-2.61 7.321,-5.397 10.585,-9.089c5.101,-5.774 13.088,-9.579 19.06,-14.202c19.456,-15.02 36.614,-33.548 53.248,-52.295c2.995,-3.374 4.409,-8.737 7.353,-12.481c3.04,-3.857 7.091,-8.067 9.562,-12.357c6.432,-11.162 13.446,-21.261 18.656,-33.329c10.521,-24.353 16.576,-51.116 23.074,-77.061c14.32,-57.182 27.648,-114.68 44.249,-171.088c8.602,-29.214 18.228,-58.043 29.157,-86.256c1.288,-3.323 2.694,-11.363 4.265,-14.141c3.11,-5.502 5.453,-11.769 8.345,-17.447c6.843,-13.456 14.756,-26.2 23.249,-38.391c14.632,-20.988 32.242,-39.322 48.445,-58.762c15.704,-18.827 31.227,-37.848 47.055,-56.549c31.852,-37.619 65.289,-73.745 103.321,-103.358c19.226,-14.976 39.336,-27.195 60.695,-37.721c11.898,-5.875 23.492,-10.267 36,-14.155c5.875,-1.829 11.766,-3.55 17.688,-5.199c5.46,-1.519 13.241,-1.656 18.21,-4.435c11.79,-6.624 24.516,-8.633 37.305,-11.657c13.68,-3.247 27.352,-6.552 41.008,-9.893c26.016,-6.4 51.976,-13.039 77.883,-19.951c6.258,-1.67 12.515,-3.355 18.773,-5.061c5.899,-1.62 12.461,-0.879 18.609,-1.707l0,-1.353c-5.171,0.936 -10.366,1.18 -15.64,0.792c-5.571,-0.389 -13.484,3.657 -18.953,5.119c-25.899,6.955 -51.868,13.586 -77.875,20.016c-12.586,3.11 -25.18,6.134 -37.782,9.158c-12.186,2.902 -26.132,4.169 -37.546,9.879c-11.328,5.68 -24.134,7.545 -36.118,11.131c-11.703,3.477 -23.5,6.732 -34.617,12.218c-21.461,10.577 -41.789,21.931 -61.477,36.432c-18.242,13.435 -35.398,28.671 -51.843,44.758c-34.383,33.627 -65.125,71.682 -96.141,109.16c-15.891,19.177 -32.789,37.494 -48.235,57.119c-15.789,20.04 -29.179,42.409 -40.133,66.192c-1.539,3.348 -2.734,5.467 -3.062,9.184c-0.61,6.881 -5.148,14.695 -7.516,21.033c-4.929,13.183 -9.498,26.524 -13.89,39.946c-9.093,27.755 -17.039,55.986 -24.546,84.338c-14.992,56.594 -26.173,114.971 -43.714,170.624c-4.109,13.034 -8.602,25.812 -14.707,37.836c-6.157,12.128 -14.682,23.317 -22.643,33.927c-2.343,3.119 -4.576,5.177 -5.837,9c-2.183,6.643 -9.805,12.761 -14.247,17.585c-9.811,10.652 -20.038,20.804 -30.816,30.2c-9.676,8.437 -21.881,14.413 -30.451,24.099c-2.771,3.128 -6.016,5.802 -9.523,8.192l1.517,0Zm30.841,0c0.589,-0.476 1.14,-0.967 1.6,-1.485c8.244,-9.317 18.688,-15.997 27.808,-24.223c8.628,-7.786 16.647,-16.375 24.314,-25.329c3.994,-4.659 7.795,-9.521 11.552,-14.415c3.827,-4.984 6.342,-10.951 10.317,-15.829c6.387,-7.823 10.291,-19.099 15.065,-28.24c6.688,-12.805 12.397,-26.244 17.572,-39.911c9.282,-24.522 16.078,-50.159 22.366,-75.831c6.618,-27.026 12.618,-54.229 19.93,-81.036c3.485,-12.789 8.008,-25.049 11.406,-37.854c3.868,-14.582 9.829,-29.048 12.79,-43.795c2.914,-14.503 8.993,-28.013 14.492,-41.494c5.726,-14.046 11.867,-27.872 18.187,-41.591c12.384,-26.876 24.969,-53.296 42.07,-76.772c15.697,-21.551 33.477,-41.344 50.751,-61.277c17.867,-20.619 36.125,-40.781 54.781,-60.486c19.758,-20.865 39.875,-40.905 61.469,-59.31c9.75,-8.316 19.687,-16.315 30.062,-23.587c4.805,-3.391 9.766,-7.56 15.555,-7.927c3.593,-0.23 9.282,-6.293 12.461,-8.33c11.235,-7.179 23.531,-12.046 35.634,-16.971c12.366,-5.025 24.428,-10.987 37.022,-15.221c25.11,-8.452 51.516,-12.844 77.116,-19.036c40.057,-9.72 80.212,-18.915 120.634,-26.417l0,-1.426c-40.531,7.524 -80.797,16.755 -120.968,26.453c-25.666,6.206 -51.845,10.987 -77.118,19.058c-11.694,3.723 -22.805,9.404 -34.212,14.076c-11.28,4.608 -22.537,9.18 -33.35,15.07c-5.585,3.06 -10.875,6.674 -16.008,10.577c-2.102,1.605 -3.054,0.389 -5.054,1.008c-1.063,0.331 -3.79,2.21 -4.391,2.577c-11.609,7.193 -22.468,15.855 -33.11,24.718c-20.241,16.841 -39.047,35.015 -57.569,54.21c-18.845,19.513 -37.204,39.622 -55.228,60.083c-18.171,20.655 -36.859,41.308 -53.617,63.439c-32.819,43.348 -55.383,96.988 -75.18,149.134c-4.39,11.575 -6.788,23.721 -10.742,35.499c-4.89,14.528 -7.594,29.9 -12.805,44.287c-9.218,25.409 -14.601,52.998 -20.851,79.479c-6.312,26.738 -12.773,53.439 -21.157,79.464c-4.413,13.682 -9.536,27.051 -15.258,40.103c-5.529,12.631 -12.595,24.275 -18.054,36.914c-2.208,5.125 -5.772,8.781 -8.602,13.369c-3.571,5.783 -6.988,11.46 -11.129,16.769c-8,10.247 -16.621,19.837 -25.722,28.829c-12.141,11.988 -25.305,22.912 -39.033,32.677l4.204,0Zm18.964,0c28.851,-23.81 54.508,-51.927 75.225,-85.229c13.937,-22.384 24.844,-49.832 32.437,-75.716c8.296,-28.257 15.008,-56.795 21.805,-85.543c6.781,-28.637 14.055,-57.122 22.312,-85.256c3.954,-13.5 8.227,-26.876 12.743,-40.147c2.265,-6.673 4.648,-13.28 7.078,-19.88c2.742,-7.473 3.968,-15.153 7.187,-22.528c11.64,-26.649 21.602,-54.923 36.016,-79.823c7.03,-12.137 13.648,-25.435 21.976,-36.457c7.735,-10.247 15.531,-20.433 23.383,-30.567c58.086,-74.884 121.796,-146.515 201.04,-192.327c44.945,-25.977 94.601,-41.565 143.593,-54.432c39.968,-10.497 80.493,-18.036 121.195,-23.925l0,-1.39c-39.758,5.767 -79.32,13.169 -118.445,23.148c-48.493,12.362 -97.321,27.95 -142.125,52.632c-80.812,44.525 -145.587,117.632 -204.336,192.953c-7.273,9.335 -14.46,18.74 -21.617,28.17c-7.195,9.475 -12.899,19.643 -19.024,30.024c-7.016,11.909 -13.632,23.589 -19.211,36.439c-6.046,13.903 -11.944,27.906 -17.922,41.844c-2.805,6.54 -5.632,13.062 -8.491,19.574c-2.024,4.622 -1.813,8.146 -3.203,12.981c-4.203,14.589 -10.282,28.723 -14.9,43.199c-8.883,27.844 -16.422,56.222 -23.468,84.726c-7.133,28.828 -13.093,58.009 -21.125,86.536c-8.125,28.847 -18.117,56.101 -31.298,82.512c-19.699,39.472 -50.029,72.018 -82.822,98.482l1.997,0Zm25.363,0c26.624,-24.241 49.145,-53.64 67.408,-86.519c11.328,-20.4 20.704,-42.136 28.633,-64.469c9.719,-27.387 13.766,-57.015 19.657,-85.622c1.422,-6.908 3.015,-13.765 4.726,-20.585c1,-3.981 2.227,-7.707 4.257,-11.18c0.61,-1.037 2.032,-3.436 2.244,-4.728c0.867,-5.44 0.412,-10.907 1.468,-16.391c1.641,-8.587 5.001,-16.805 8.093,-24.802c9.431,-24.417 15.017,-50.987 23.618,-75.878c18.805,-54.456 43.578,-105.097 76.688,-150.097c14.218,-19.33 29.554,-37.574 45.226,-55.381c7.571,-8.595 15.265,-17.068 22.976,-25.488c4.281,-4.677 8.571,-9.335 12.867,-13.994c3.29,-3.567 8,-5.079 11.064,-8.506c16.499,-18.509 34.21,-35.421 52.936,-50.976c18.852,-15.664 38.734,-31.504 59.845,-42.981c81.445,-44.294 169.756,-65.426 258.921,-77.925l0,-1.419c-39.68,5.551 -79.165,12.795 -118.164,22.903c-51.101,13.234 -100.055,32.364 -147.156,58.378c-21.508,11.866 -41.899,29.388 -60.978,45.595c-18.209,15.486 -34.046,35.139 -52.897,49.096c-3.976,2.953 -7.493,8.103 -10.921,11.831c-4.266,4.641 -8.518,9.281 -12.751,13.94c-9.054,9.93 -18,19.985 -26.797,30.216c-16.945,19.669 -33.078,40.201 -48,61.875c-27.476,39.919 -47.664,85.667 -64.078,132.555c-9.039,25.842 -14.898,53.29 -24.71,78.698c-3.727,9.634 -8.125,20.382 -8.125,31.079c-0,4.201 -0.477,8.068 -2.461,11.68c-0.642,1.169 -2.203,3.393 -2.563,4.729c-1.852,6.785 -3.523,13.604 -5.071,20.488c-6.195,27.615 -10.171,55.783 -18.046,82.915c-6.946,23.951 -17.446,47.012 -28.829,68.616c-18.61,35.332 -42.642,66.822 -71.071,92.347l1.991,0Zm17.369,0c13.312,-13.262 26.266,-26.613 37.517,-42.689c14.249,-20.364 26.061,-42.784 36.451,-65.891c22.119,-49.191 33.001,-102.631 45.29,-155.664c11.922,-51.442 25.984,-102.384 45.391,-150.917c9.461,-23.65 20.39,-46.528 32.695,-68.449c6,-10.695 12.454,-21.058 19.172,-31.183c3.954,-5.96 8.086,-11.759 12.29,-17.491c3.312,-4.526 5.491,-10.573 8.835,-14.791c57.149,-72.167 121.664,-138.824 199.251,-181.68c19.6,-10.808 39.968,-19.779 60.788,-27.065c10.288,-3.629 20.719,-6.653 31.218,-9.338c10.727,-2.744 20.322,-4.536 30.103,-10.376c11.156,-6.674 26.32,-7.819 38.593,-10.627c12.797,-2.923 25.64,-5.573 38.508,-8.035c15.664,-2.988 31.39,-5.573 47.156,-7.769l0,-1.404c-13.726,1.93 -27.43,4.126 -41.094,6.603c-26.258,4.788 -54.03,8.913 -79.483,17.812c-3.743,1.296 -7.189,3.953 -10.664,5.919c-5.579,3.146 -12.087,3.801 -18.119,5.184c-11.453,2.671 -22.788,6.012 -34,9.777c-20.209,6.754 -39.873,15.488 -58.96,25.56c-78.235,41.307 -143.203,108.332 -200.641,179.981c-6.719,8.375 -11.516,17.903 -17.805,26.746c-7.101,9.973 -13.757,20.354 -20.125,30.937c-12.944,21.515 -24.155,44.314 -34.163,67.728c-19.672,46.055 -33.766,94.905 -45.781,144.106c-13.329,54.528 -23.024,110.434 -44.455,161.937c-10.178,24.469 -22.14,47.963 -36.259,69.804c-12.685,19.653 -27.661,35.552 -43.488,51.275l1.779,0Zm21.101,0c11.571,-12.902 22.656,-26.333 32.791,-40.747c14.538,-20.671 26.125,-43.962 36.96,-67.28c5.289,-11.373 8.374,-24.01 11.781,-36.211c4.148,-14.826 8.837,-29.671 12.102,-44.78c6,-27.695 11.992,-55.388 18.57,-82.915c13.376,-55.926 29.845,-110.927 53.281,-162.573c21.875,-48.198 50.899,-92.785 84.204,-131.668c13.148,-15.345 27.227,-29.637 41.875,-43.119c3.561,-3.287 5.984,-7.136 8.82,-11.18c3.546,-5.045 9.673,-8.929 14.218,-12.832c8.219,-7.031 16.438,-14.079 24.742,-21.006c34.032,-28.353 71.516,-52.927 110.204,-72.335c67.179,-33.674 139.501,-53.208 212.609,-60.89l0,-1.426c-88.976,9.411 -176.141,36.461 -254.883,85.011c-22.945,14.149 -44.929,28.987 -66.085,46.371c-10.016,8.226 -19.845,16.735 -29.712,25.172c-4.086,3.497 -8.523,6.645 -11.992,10.933c-4.429,5.484 -8.141,10.512 -13.265,15.293c-35.423,32.994 -66.071,71.992 -91.946,114.758c-47.218,78.049 -72.141,167.82 -92.39,258.655c-10.797,48.454 -19.868,99.763 -42.813,143.025c-10.719,20.214 -20.702,39.54 -34.211,57.725c-8.329,11.215 -17.314,21.788 -26.587,32.019l1.727,0Zm-1257.84,-783.209c67.77,5.148 143.002,18.475 183.11,85.902c6.484,10.899 11.482,22.642 13.735,35.579c2.752,15.802 0.249,32.344 -2.97,47.777c-5.517,26.35 -14.656,50.149 -28.262,72.448c-27.943,45.712 -69.472,77.079 -116.627,91.6c-16,4.93 -32.455,7.787 -48.986,9.149l0,1.379c39.142,-3.313 78.266,-14.94 110.957,-39.786c17.369,-13.193 32.921,-29.268 46.246,-47.471c12.186,-16.621 25.331,-37.52 30.797,-58.42c6.144,-23.521 13.894,-48.991 10.502,-73.863c-2.988,-21.851 -13.894,-40.941 -26.732,-57.219c-23.597,-29.937 -57.364,-46.339 -91.143,-55.807c-26.361,-7.401 -53.504,-10.656 -80.627,-12.693l0,1.425Zm1275.07,783.209c10.592,-13.016 20.46,-26.737 29.443,-41.283c6.743,-10.898 11.821,-24.934 20.119,-34.303c7.202,-8.13 11.139,-23.3 14.992,-33.829c19.32,-52.823 29.116,-108.957 41.694,-164.082c12.829,-56.225 29.797,-112.941 54.572,-163.951c23.163,-47.69 53.718,-91.558 87.81,-129.815c28.845,-32.362 61.158,-60.979 94.588,-87.03c33.398,-26.033 69.398,-47.707 106.789,-65.444c62.022,-29.445 128.101,-46.912 194.921,-54.983l0,-1.44c-79.179,9.648 -156.921,32.674 -228.742,72.173c-21.266,11.691 -41.835,24.979 -61.694,39.481c-9.65,7.049 -19.065,14.484 -28.322,22.183c-9.367,7.787 -19.328,20.304 -30.171,24.856c-3.219,1.354 -5.906,5.854 -8.312,8.421c-4.353,4.658 -8.875,9.104 -13.399,13.534c-9.774,9.58 -19.368,19.195 -28.555,29.496c-15.976,17.93 -30.758,37.169 -44.507,57.306c-25.306,37.045 -46.626,77.167 -62.555,120.374c-17.235,46.757 -29.696,95.485 -40.306,144.616c-10.491,48.586 -20.64,97.373 -38.616,143.287c-2.086,5.327 -4.336,10.583 -6.633,15.803c-2.516,5.713 -6.672,9.493 -9.359,14.897c-5.195,10.458 -10.954,20.54 -17.032,30.367c-8.585,13.903 -18.163,26.963 -28.383,39.366l1.658,-0Zm-1275.07,-761.71c66.394,11.722 143.219,46.914 147.142,132.572c2.157,46.863 -20.454,90.448 -50.905,120.367c-16.314,16.012 -35.578,28.149 -56.051,35.875c-13.012,4.914 -26.56,7.814 -40.186,9.966l0,1.329c13.69,-2.241 27.264,-5.204 40.531,-9.923c19.968,-7.11 38.298,-19.363 54.483,-34.242c31.988,-29.408 53.453,-73.082 53.472,-120.191c0,-44.35 -26.048,-81.106 -57.952,-103.785c-27.11,-19.26 -58.816,-28.612 -90.534,-33.638l0,1.67Zm1297.06,761.71c57.266,-78.988 77.494,-181.415 100.93,-278.209c13.805,-57.041 30.453,-112.799 55.626,-164.856c24.445,-50.563 59.108,-95.002 97.078,-133.198c52.96,-53.298 115.147,-96.03 179.546,-129.164c34.712,-17.863 71.414,-29.074 108.414,-39.046c26.821,-7.207 53.978,-12.564 81.344,-15.955l0,-1.39c-40.108,5.098 -79.61,14.552 -118.688,26.525c-48.992,14.991 -94.672,38.918 -138.586,67.448c-84.499,54.878 -164.343,129.199 -211.639,227.038c-35.805,74.057 -52.274,155.997 -72.095,236.627c-17.875,72.686 -40.78,145.548 -83.569,204.18l1.639,-0Zm17.767,-0c53.944,-78.97 70.499,-178.628 92.749,-273.576c12.336,-52.656 26.93,-104.784 49.235,-153.247c22.875,-49.711 54.875,-94.351 91.163,-132.39c6.72,-7.049 13.86,-13.534 21.36,-19.494c6.391,-5.062 13.047,-8.579 18.689,-14.677c13.647,-14.732 29.265,-26.948 45.155,-38.357c32.202,-23.115 66.985,-42.82 101.953,-60.012c58.813,-28.917 121.212,-48.004 184.867,-56.161l0,-1.456c-37.633,4.811 -74.804,13.429 -111.187,25.662c-48.727,16.382 -94.227,40.217 -139.173,66.76c-22.265,13.149 -43.851,27.704 -63.938,44.842c-9.366,7.981 -17.53,18.932 -27.694,25.49c-9.641,6.204 -18.438,14.009 -26.796,22.201c-35.743,35.031 -66.704,78.96 -89.97,125.384c-35.21,70.269 -51.483,149.721 -69.008,227.26c-17,75.198 -36.562,150.081 -79.006,211.771l1.601,0Zm-1314.83,-742.853c53.67,14.17 111.232,49.219 116.531,116.457c2.925,37.124 -14.873,72.914 -37.299,98.455c-12.077,13.746 -26.528,24.398 -41.933,32.739c-12.141,6.574 -24.595,9.772 -37.299,12.348l0,1.302c12.877,-2.698 25.472,-6.003 37.939,-12.42c16.435,-8.464 31.251,-20.495 43.936,-34.954c22.451,-25.577 37.856,-60.925 35.923,-97.47c-1.907,-35.86 -23.878,-66.235 -48.966,-86.046c-20.442,-16.14 -44.397,-26.034 -68.832,-32.096l0,1.685Zm1332.46,742.853c23.485,-38.074 41.696,-80.569 53.789,-124.848c3.593,-13.158 7.235,-26.289 10.32,-39.612c3.462,-14.995 5.384,-30.296 8.75,-45.308c3.102,-13.817 6.103,-27.659 8.572,-41.644c1.1,-6.249 1.81,-11.258 4.664,-16.759c2.382,-4.615 2.545,-12.79 3.609,-18.01c11.038,-54.307 29.413,-105.987 54.187,-154.133c5.507,-10.689 10.96,-21.463 16.703,-32.001c6.829,-12.533 16.235,-22.694 24.219,-34.252c14.445,-20.909 32.664,-39.277 50.694,-56.144c13.024,-12.2 26.767,-23.378 40.845,-33.944c7.163,-5.378 14.477,-10.51 21.843,-15.538c3.312,-2.25 6.656,-4.447 10,-6.645c3.626,-2.373 6.461,-6.626 10.274,-9.105c30.563,-19.917 61.946,-38.25 94.328,-54.106c32.108,-15.732 65.305,-28.53 99.227,-38.232c9.203,-2.621 19.632,-6.746 29.171,-6.746c8.173,-0 15.837,-2.959 23.829,-4.853c7.453,-1.764 14.968,-3.154 22.515,-4.219l0,-1.304c-12.766,1.865 -25.436,4.522 -38.008,8.086c-5.64,1.599 -11.617,0.915 -17.366,2.29c-5.883,1.418 -11.734,2.966 -17.58,4.565c-12.436,3.41 -24.756,7.367 -36.992,11.655c-45.53,15.926 -89.116,38.197 -131.086,63.581c-10.531,6.381 -20.936,13.007 -31.288,19.757c-4.625,3.006 -7.992,7.612 -12.68,10.706c-5.804,3.849 -11.539,7.821 -17.227,11.864c-19.226,13.658 -37.632,28.759 -55.022,45.247c-18.117,17.182 -35.352,36.122 -49.907,57.207c-6.345,9.185 -13.679,17.086 -19.421,26.833c-6.547,11.118 -12.157,23.081 -18.157,34.585c-17.64,33.838 -31.93,69.741 -42.726,107.061c-5.751,19.862 -10.313,40.148 -14.173,60.573c-0.703,3.71 -1.906,6.213 -3.562,9.423c-1.602,3.092 -1.531,8.674 -2.125,12.18c-1.97,11.646 -4.476,23.168 -7.016,34.674c-4.57,20.671 -7.625,41.659 -12.688,62.208c-5.108,20.734 -11,41.239 -17.921,61.295c-11.415,33.073 -26.163,64.555 -44.141,93.613l1.547,-0Zm22.726,-0c21.829,-44.042 39.376,-90.598 51.469,-139.272c14.063,-56.6 21.485,-115.005 35.775,-171.545c13.686,-54.158 32.593,-109.731 62.366,-155.268c30.453,-46.573 68.578,-84.198 110.837,-116.613c48.819,-37.44 102.109,-65.97 156.374,-91.722c27.984,-13.272 56.398,-25.119 85.984,-33.012c20.415,-5.431 41.157,-9.123 62.008,-11.69l0,-1.281c-39.664,5.166 -78.57,14.465 -116.344,30.215c-46.422,19.353 -92.124,42.715 -135.491,69.609c-84.399,52.384 -161.696,123.839 -200.265,225.942c-11.9,31.5 -22.141,63.939 -30.016,97.012c-8.377,35.192 -14.361,71.052 -21.306,106.621c-13.133,67.315 -33.274,131.009 -62.882,191.004l1.491,0Zm-1355.19,-716.994c39.578,15.257 77.971,46.951 80.922,96.54c3.251,54.701 -37.716,94.93 -80.922,111.734l0,1.556c44.096,-16.866 84.045,-57.534 82.189,-113.29c-1.69,-50.134 -42.157,-82.635 -82.189,-98l0,1.46Zm1378.54,716.994c18.905,-45.686 31.577,-94.158 43.046,-142.857c6.718,-28.503 11.805,-57.454 16.774,-86.397c4.992,-29.154 9.039,-58.904 16.421,-87.434c14.352,-55.415 34.336,-107.675 65.775,-153.473c27.398,-39.912 61.694,-72.976 99.008,-100.531c49.076,-36.262 104.038,-62.701 157.53,-89.384c13.665,-6.82 27.343,-13.588 41.007,-20.408c14.282,-7.138 31.149,-9.668 46.344,-13.605c18.391,-4.765 36.891,-9.036 55.555,-11.99l0,-1.424c-13.476,2.146 -26.875,4.94 -40.219,8.122c-12.561,2.988 -25.062,6.363 -37.561,9.686c-6.252,1.67 -12.493,3.323 -18.743,4.975c-5.907,1.528 -12.165,6.065 -17.727,8.842c-49.328,24.573 -98.774,48.866 -146.468,77.342c-78.211,46.67 -148.742,116.808 -183.461,210.588c-11.72,31.657 -21.883,64.792 -28.181,98.375c-6.539,34.839 -11.906,69.943 -18.515,104.774c-11.913,62.729 -27.531,126.519 -51.953,184.799l1.368,0Zm-1378.54,-690.363c25.862,15.012 48.845,39.991 49.843,73.528c1.082,36 -22.752,63.406 -49.843,79.726l0,1.68c26.97,-16.041 49.44,-42.558 51.078,-78.593c1.626,-35.209 -23.814,-62.155 -51.078,-77.853l0,1.512Zm1412.4,690.363c0.829,-9.308 1.828,-18.528 3.859,-27.791c3.328,-15.197 6.976,-30.297 10.509,-45.431c6.64,-28.424 12.062,-56.936 16.398,-85.912c8.015,-53.552 15.171,-107.369 28.272,-159.717c13.376,-53.411 33.728,-105.31 64.767,-148.674c26.522,-37.045 60.241,-66.429 96.227,-90.844c45.366,-30.78 94.483,-53.683 142.35,-78.89c6.008,-3.165 11.986,-6.381 17.954,-9.634c6.227,-3.393 14.695,-10.37 21.655,-10.792c6.345,-0.388 12.822,-4.87 18.743,-7.331c7.688,-3.198 15.531,-5.905 23.407,-8.438c20.78,-6.68 42.062,-11.109 63.46,-14.571l0,-1.353c-12.39,2.021 -24.742,4.359 -37.024,7.207c-12.008,2.793 -23.875,6.257 -35.601,10.283c-5.882,2.004 -11.695,4.306 -17.469,6.696c-2.898,1.214 -5.757,2.515 -8.624,3.814c-2.978,1.354 -6.102,1.354 -9,2.409c-8.501,3.13 -16.594,8.912 -24.656,13.271c-9.712,5.274 -19.501,10.39 -29.29,15.451c-18.843,9.774 -37.766,19.354 -56.531,29.321c-73.921,39.304 -146.36,88.286 -189.626,169.392c-34.71,65.083 -50.062,139.534 -61.531,213.601c-6.03,38.927 -10.742,78.152 -18.867,116.612c-4.179,19.757 -9,39.34 -13.547,58.992c-2.155,9.344 -4.914,18.915 -6.007,28.503c-0.525,4.597 -0.883,9.212 -1.227,13.826l1.399,0Zm46.577,-8.43c3.946,4.351 8.431,6.978 13.212,8.43l9.578,0c-2.359,-0.238 -4.72,-0.634 -7.04,-1.169c-6.366,-1.468 -11.991,-5.106 -16.609,-10.195c-6.656,-7.322 -6.96,-18 -7.171,-27.756c-0.696,-31.844 1.968,-63.167 5.976,-94.667c7.61,-59.898 14.07,-119.286 27.704,-177.951c12.539,-54 29.21,-105.399 61.336,-148.598c30.382,-40.852 70.133,-71.085 111.93,-95.097c10.843,-6.222 21.976,-11.092 33.154,-16.418c11.783,-5.625 23.126,-12.622 34.681,-18.844c24.585,-13.237 49.257,-26.28 73.828,-39.552c38.657,-20.865 78.703,-34.839 120.445,-42.168l0,-1.496c-37.82,6.523 -74.507,18.423 -109.71,36.441c-24.618,12.604 -48.876,26.208 -73.328,39.198c-11.868,6.311 -23.704,12.709 -35.462,19.266c-11.695,6.503 -24,11.232 -35.757,17.595c-41.439,22.492 -80.399,51.179 -112.041,89.121c-30.983,37.153 -49.249,81.239 -62.553,129.525c-15.539,56.417 -24.257,114.161 -31.048,172.618c-3.561,30.726 -8.109,61.321 -9.944,92.275c-0.829,13.958 -0.712,27.88 -0.407,41.845c0.234,10.838 2.218,19.89 9.226,27.597Zm24.111,-129.768c0.141,23.097 -0.978,45.64 11.757,65.143c10.977,16.805 32.218,18.439 48.985,15.521c23.109,-4.015 45.383,-17.261 65.914,-29.24c20.765,-12.12 40.477,-26.385 58.452,-43.287c3.477,-3.269 7.984,-4.957 11.266,-8.217c4.219,-4.192 8.391,-8.429 12.515,-12.735c8.813,-9.186 17.266,-18.792 25.423,-28.716c14.883,-18.113 28.265,-37.765 39.851,-58.735c12.18,-22.036 20.945,-46.117 32.688,-68.45c12.32,-23.431 25.428,-47.961 41.281,-68.547c14.64,-19.009 33.461,-35.033 52.719,-47.618c11.133,-7.277 23.461,-11.329 35.282,-16.796c0.265,-0.122 0.523,-0.247 0.78,-0.369l0,-1.688c-8.5,3.798 -17.086,7.304 -25.484,11.391c-20.141,9.791 -38.952,26.121 -54.828,43.075c-16.921,18.07 -29.054,40.966 -41.555,62.93c-13.219,23.221 -23.281,47.883 -35.024,71.982c-11.382,23.38 -25.539,44.913 -41.101,64.934c-7.266,9.352 -14.962,18.264 -22.843,26.946c-3.993,4.396 -8.078,8.686 -12.197,12.93c-4.718,4.878 -9.734,8.253 -14.992,12.146c-9.749,7.216 -18.32,16.918 -28.038,24.4c-10.352,7.961 -21.235,15.018 -32.274,21.673c-22.883,13.781 -47.78,28.062 -73.843,31.482c-12.72,1.679 -27.587,-0.976 -37.587,-10.503c-8.405,-8.015 -12.532,-20.988 -14.734,-32.765c-2.624,-14.037 -1.14,-30.015 -1.188,-44.341c-0.054,-16.19 0.455,-32.361 2.133,-48.446c1.43,-13.622 1.133,-27.193 2.664,-40.807c1.805,-16.101 3.97,-32.15 6.539,-48.12c4.572,-28.433 10.626,-56.935 19.517,-84.067c17.835,-54.432 51.109,-97.78 92.047,-132.048c19.772,-16.549 41.498,-30.841 64.631,-40.455c23.322,-9.704 47.461,-17.192 70.071,-28.864c34.227,-17.666 65.891,-40.657 100.867,-56.62c24.938,-11.372 50.783,-20.372 77.219,-25.717l0,-1.476c-36.851,7.348 -72.718,21.692 -106.234,40.114c-22.679,12.481 -44.375,27.122 -67.07,39.585c-24.086,13.219 -50.11,21.121 -75.189,31.606c-42.163,17.613 -82.171,49.931 -111.78,88.022c-15.117,19.442 -28.688,40.685 -38.195,64.283c-10.055,24.953 -16.697,51.567 -22.172,78.205c-5.594,27.22 -9.259,54.905 -12.298,82.627c-0.71,6.46 -0.382,13.061 -0.382,19.565c0,7.083 -1.579,14.563 -2.227,21.621c-1.477,16.075 -1.469,32.308 -1.366,48.446Zm-1483.09,-495.019c2.08,5.22 3.341,10.934 3.533,17.209c0.185,6.82 -1.159,13.289 -3.533,19.301l0,2.514c2.842,-6.628 4.563,-13.905 4.781,-21.815c0.217,-7.699 -1.639,-14.748 -4.781,-21.111l0,3.902Zm1511.93,492.723c3.82,18.009 20.336,37.037 37.046,37.073c9.439,0.018 19.587,1.583 28.735,-1.381c10.907,-3.533 21.508,-8.173 31.859,-13.411c40.11,-20.321 77.946,-53.113 105.064,-92.18c27.054,-38.979 44.546,-85.07 65.765,-128.073c18.531,-37.555 40.235,-72.08 72.39,-96.119c14.837,-11.082 31.328,-19.045 48.376,-24.582c2.093,-0.686 3.023,-2.848 5.047,-3.806c4.336,-2.039 9.187,-3.261 13.788,-4.676l0,-1.44c-0.506,0.165 -1.016,0.333 -1.523,0.501c-9.829,3.25 -18.016,7.918 -27.577,11.521c-18.376,6.935 -35.932,17.631 -51.103,31.247c-34.758,31.208 -55.68,75.4 -75.905,119.1c-21.079,45.51 -42.071,91.379 -75.68,126.94c-17.244,18.237 -36.984,34.136 -57.36,47.566c-10.258,6.768 -20.993,12.577 -31.992,17.64c-11.892,5.476 -24.188,10.96 -37.172,9.607c-5.173,-0.537 -10.243,0.122 -15.414,0.113c-8.117,-0.018 -15.25,-6.6 -20.634,-12.787c-9.811,-11.286 -13.545,-26.35 -15.765,-41.468c-4.509,-30.647 -2.82,-62.086 0.063,-92.802c2.664,-28.434 6.211,-56.77 13.054,-84.351c3.445,-13.868 8,-27.351 13.414,-40.384c2.594,-6.25 5.548,-12.296 8.626,-18.256c-0.094,0.176 0.789,-1.476 0.82,-2.083c0.218,-4.385 1.696,-7.057 3.726,-10.67c24.032,-42.653 58.376,-76.659 99.118,-97.558c24.429,-12.533 50.922,-17.799 76.461,-26.552c11.875,-4.07 22.624,-10.442 34.234,-15.196c11.781,-4.835 21.891,-11.127 32.601,-18.493c24.68,-16.945 49.97,-32.747 76.673,-45.28c16.36,-7.681 33.75,-12.797 51.335,-16.611l0,-1.09c-12.655,2.864 -25.219,6.24 -37.672,10.194c-22.46,7.155 -44.422,21.428 -64.68,34.173c-10.694,6.732 -21.187,13.87 -31.64,21.076c-11.368,7.84 -23.164,12.242 -35.257,18.236c-25.149,12.464 -51.321,18.634 -77.517,27.607c-40.578,13.914 -76.508,41.521 -104.202,77.582c-6.36,8.28 -12.14,17.094 -17.595,26.147c-5.851,9.712 -8.64,19.591 -13.437,29.935c-10.968,23.67 -17.68,49.545 -22.289,75.64c-9.523,53.937 -15.258,113.36 -3.781,167.351Zm349.813,-378.219c4.929,7.154 14.249,6.777 21.374,7.172c12.344,0.685 24.634,-0.984 36.883,-3.164l0,-1.697c-5.156,0.896 -10.328,1.74 -15.515,2.399c-8.11,1.03 -16.243,1.32 -24.39,0.871c-4.938,-0.273 -9.829,-0.685 -14.227,-3.444c-8.282,-5.196 -7.938,-15.927 -4.25,-24.058c7.187,-15.881 24.656,-27.211 38.155,-35.119c6.555,-3.833 13.306,-7.137 20.227,-9.863l0,-1.335c-8,3.146 -15.812,7.013 -23.444,11.478c-14.759,8.649 -31.556,21.542 -38.211,39.428c-2.236,6.03 0.116,12.56 3.398,17.332Zm-81.127,49.842c0.048,-0.204 0.002,-0.43 -0.194,-0.614c-4.062,-3.824 -7.46,-8.393 -11.39,-12.375c-2.978,-3.006 -7.056,-3.323 -10.82,-4.219c-11.656,-2.787 -23.743,-3.085 -35.61,-2.875c-21.227,0.369 -42.743,1.417 -63.117,8.535c-31.867,11.154 -59.086,34.691 -79.352,64.283c-20.585,30.06 -33.461,66.34 -39.976,103.422c-3.328,18.912 -4.704,38.232 -4.509,57.498c0.095,9.535 0.742,19.055 1.743,28.528c0.899,8.605 1.312,18.993 5.07,26.631c4.688,9.545 7.344,20.514 14.821,27.792c6.211,6.036 13.734,10.125 21.78,10.67c9.915,0.676 20.18,1.141 29.501,-2.813c7.906,-3.348 15.538,-7.454 22.969,-11.979c29.32,-17.887 53.187,-45.125 72.414,-75.542c19.648,-31.087 34.304,-65.927 47.054,-101.181c6.469,-17.877 12.352,-36.026 18.071,-54.229c2.891,-9.182 5.718,-18.386 8.547,-27.597c3.52,-11.425 3.663,-21.828 2.998,-33.935Zm-1.253,0.227c-3.337,-3.176 -6.051,-6.978 -9.293,-10.246c-4.89,-4.949 -11.734,-5.985 -17.961,-6.934c-9.781,-1.494 -19.64,-1.995 -29.507,-1.706c-17.195,0.502 -35.64,0.475 -52.375,5.204c-25.539,7.216 -49.289,21.332 -68.601,41.634c-38.244,40.21 -59.454,98.446 -63.79,156.708c-1.532,20.558 -1.304,41.371 1.344,61.804c3.422,26.378 15.641,59.046 43.118,59.275c7.602,0.061 16.537,1.107 23.741,-1.943c4.993,-2.118 9.953,-4.377 14.766,-6.978c8.094,-4.369 15.984,-9.255 23.445,-14.897c15.766,-11.936 30.024,-26.289 42.406,-42.549c24.837,-32.598 43.055,-70.856 57.962,-110.25c7.616,-20.118 14.499,-40.578 21.022,-61.18c3.173,-10.002 6.274,-20.03 9.368,-30.067c3.975,-12.919 5.083,-24.213 4.355,-37.875Zm-484.784,-0.548c-0.014,-0.047 -0.034,-0.095 -0.059,-0.144l-0.005,-0.009c-0.025,-0.063 -0.055,-0.117 -0.087,-0.162c-3.325,-6.176 -5.496,-11.209 -12.279,-11.957c-8.799,-0.984 -20.216,5.537 -27.966,9.747c-8.737,4.745 -16.685,11.232 -24.199,18.087c-4.109,3.752 -7.987,7.804 -11.802,11.917c-3.98,4.273 -8.876,6.145 -12.71,10.478c-36.269,40.973 -65.504,89.296 -97.754,134.271c-32.115,44.797 -66.259,90.315 -108.32,123.574c-20.204,15.987 -42.016,30.479 -64.646,41.588c-23.814,11.69 -49.062,19.293 -74.112,26.72c-11.002,3.262 -21.421,8.744 -32.371,12.155c-4.96,1.539 -9.907,1.705 -14.643,4.158c-6.317,3.278 -12.813,6.125 -19.284,9.025c-9.843,4.421 -19.622,8.93 -29.011,14.467c-4.627,2.734 -9.03,5.907 -13.286,9.316c-2.963,2.373 -8.839,6.223 -10.266,9.915c-8.141,21.207 4.813,35.112 20.218,46.046l2.675,0c-5.606,-3.823 -11.014,-7.998 -15.814,-13.184c-6.496,-7.014 -9.792,-16.005 -7.904,-26.078c2.438,-13.147 19.968,-21.988 29.67,-27.473c43.206,-24.442 90.765,-35.113 136.454,-51.866c44.852,-16.442 87.488,-44.691 122.701,-80.076c38.042,-38.207 70.176,-84.384 101.511,-129.454c23.545,-33.873 45.836,-69.064 72.825,-99.562c5.082,-5.74 11.552,-9.352 16.858,-15.065c6.349,-6.811 13.126,-13.052 20.307,-18.702c7.136,-5.616 14.886,-10.135 23.002,-13.632c4.128,-1.786 8.416,-2.989 12.716,-4.018c8.455,-2.021 12.775,3.701 16.432,10.485l0.03,0.077c5.102,13.028 1.03,28.462 -0.679,41.935c-1.805,14.275 -3.898,28.503 -6.125,42.707c-4.452,28.335 -9.728,56.504 -15.219,84.604c-1.171,6.037 -2.375,12.076 -3.571,18.104c-0.999,5.018 -3.264,8.966 -4.473,13.598c-3.252,12.418 -5.089,25.453 -7.86,38.039c-5.907,26.851 -13.447,53.165 -23.475,78.433c-8.704,21.938 -19.661,42.442 -33.575,60.662c-15.347,20.109 -34.617,35.667 -54.489,49.553c-24.602,17.182 -51.047,30.446 -78.368,40.913l3.571,0c27.117,-10.723 53.299,-24.223 77.913,-41.414c19.232,-13.44 37.21,-28.89 52.263,-48.041c14.208,-18.07 24.883,-39.084 33.779,-60.953c9.856,-24.239 16.979,-49.753 22.874,-75.54c3.02,-13.238 5.651,-26.588 8.23,-39.939c0.762,-3.928 3.27,-7.11 4.096,-11.268c1.69,-8.445 3.354,-16.9 5.005,-25.357c5.715,-29.241 11.049,-58.569 15.611,-88.064c2.204,-14.266 4.165,-28.573 5.938,-42.918c1.398,-11.286 3.853,-22.052 0.658,-33.196c-0.317,-0.837 -0.641,-1.673 -0.985,-2.502Zm-475.759,18.564c-0.024,-0.085 -0.063,-0.17 -0.119,-0.25c-3.373,-4.844 -4.499,-9.344 -8.416,-13.774c-4.128,-4.666 -6.515,-7.26 -11.879,-9.896c-4.14,-2.04 -7.686,-4.148 -12.204,-4.446c-7.636,-0.512 -15.296,-0.82 -22.951,-1.073c-27.373,-0.897 -54.784,-0.159 -82.157,1.027c-27.481,1.196 -54.95,2.98 -82.425,4.422c-13.203,0.694 -26.419,1.274 -39.623,1.713c-6.611,0.22 -13.216,0.369 -19.827,0.484c-5.779,0.097 -14.528,-1.775 -20,0.159c-9.049,3.207 -19.846,4.21 -27.219,11.496c-6.502,6.416 -14.579,15.09 -15.699,25.224c-2.643,23.977 7.545,46.81 16.685,67.579c4.108,9.335 8.108,17.622 13.939,25.707c5.766,7.972 12.262,15.215 19.2,21.886c11.846,11.407 25.421,20.346 39.75,27.157c48.435,23.011 104.922,16.744 152.154,-6.846c24.537,-12.252 46.861,-30.014 65.376,-51.899c21.331,-25.216 39.641,-62.587 35.488,-98.411c-0.012,-0.097 -0.037,-0.183 -0.073,-0.259Zm-1.163,0.536c-1.469,-2.165 -2.365,-4.187 -3.404,-6.71c-1.882,-4.554 -5.895,-7.805 -8.864,-11.374c-7.104,-8.543 -19.469,-9.51 -29.018,-9.949c-16.403,-0.756 -32.806,-1.036 -49.229,-0.836c-32.953,0.406 -65.862,2.26 -98.771,4.132c-32.998,1.872 -66.029,3.77 -99.072,3.945c-18.285,0.098 -36.953,6.585 -47.488,24.585c-8.435,14.413 -4.109,34.689 1.05,49.842c7.955,23.344 17.779,46.027 33.485,63.906c12.39,14.106 26.764,25.971 42.732,34.39c32.096,16.911 68.596,21.454 103.456,15.197c34.432,-6.179 67.828,-21.524 95.636,-45.439c7.584,-6.521 14.848,-13.536 21.504,-21.234c5.856,-6.787 13.043,-14.414 17.184,-22.711c12.133,-24.294 24.051,-48.921 20.799,-77.744Zm961.706,-18.552c0.055,0.053 0.112,0.107 0.169,0.16c0.423,0.405 0.979,0.06 1.084,-0.387l-0.006,-0.114c-0.054,-0.914 -1.312,-0.923 -1.266,0c0.006,0.113 0.012,0.226 0.019,0.341Zm-961.706,18.552c0.051,0.074 0.102,0.149 0.154,0.224c0.443,0.64 1.2,-0.086 1.009,-0.76c-0.293,-0.63 -1.291,-0.557 -1.194,0.259c0.01,0.092 0.021,0.185 0.031,0.277Zm901.177,39.348c0.015,-0.135 -0.011,-0.284 -0.092,-0.436c-3.937,-7.399 -7.508,-18.728 -14.593,-23.228c-9.211,-5.845 -18.875,-9.317 -29.407,-10.458c-18.039,-1.96 -35.663,6.177 -50.398,17.269c-28.812,21.683 -47.04,58.719 -55.265,95.942c-4.274,19.317 -5.453,39.515 -3.469,59.283c1.586,15.915 5.382,32.994 17.171,43.259c11.203,9.765 25.078,12.348 38.837,9.686c17.569,-3.402 30.016,-17.368 41.889,-31.299c36.595,-42.909 59.28,-99.824 55.327,-160.018Zm-1.249,0.151c-5.344,-10.073 -9.114,-20.498 -19.218,-25.687c-9.868,-5.071 -20.671,-8.086 -31.586,-7.312c-40.288,2.881 -71.984,41.845 -87.203,81.394c-7.93,20.594 -12.968,42.891 -13.57,65.4c-0.539,20.145 0.219,46.942 13.499,62.314c12.65,14.643 32.345,18.238 49.196,11.496c19.587,-7.838 35.016,-28.432 47.579,-46.396c28.312,-40.482 44.718,-89.447 41.288,-141.434l0.015,0.225Zm-962.534,-2.69c-0.014,-0.073 -0.041,-0.149 -0.081,-0.225c-14.17,-26.358 -44.237,-27.827 -68.813,-28.705c-29.939,-1.073 -61.722,1.801 -90.343,12.341c-11.174,4.112 -19.833,10.326 -27.782,20.17c-4.749,5.879 -10.752,14.626 -11.469,22.745c-0.953,10.768 0.608,20.628 4.467,30.517c15.456,39.577 59.38,51.16 94.08,47.98c24.922,-2.286 48.967,-13.247 69.05,-29.884c9.594,-7.954 19.699,-17.613 24.685,-29.943c2.701,-6.68 7.686,-13.404 8.326,-20.735c0.735,-8.411 0.749,-16.375 -2.12,-24.261Zm-1.186,0.477c-8.044,-14.954 -19.964,-21.015 -34.537,-24.186c-31.501,-6.856 -65.69,-5.02 -97.126,1.354c-12.858,2.601 -26.637,5.703 -38.234,12.84c-18.157,11.188 -31.341,34.664 -24.435,58.06c14.809,50.125 70.777,62.421 111.424,52.12c20.339,-5.15 39.949,-15.108 56.134,-30.086c17.298,-16.018 36.401,-43.487 26.774,-70.102Zm0,0l0.01,0.019c0.382,0.706 1.312,0.194 1.176,-0.496l-0.017,-0.049c-0.314,-0.844 -1.536,-0.475 -1.223,0.378c0.019,0.051 0.037,0.101 0.054,0.148Zm1085.13,71.034c-15.203,20.663 -25.436,46.223 -37.672,69.162c-12.531,23.476 -25.531,46.644 -39.617,68.976c-30.258,47.979 -66.141,87.918 -110.281,119.418c-22.336,15.933 -45.476,30.567 -68.804,44.551c-11.938,7.153 -23.859,15.266 -36.531,20.628c-11.423,4.833 -23.58,11.61 -35.525,14.211c-5.914,1.292 -11.188,3.744 -17.28,4.624c-0.571,0.088 -1.141,0.141 -1.712,0.202l4.828,0c5.008,-0.985 9.922,-2.303 14.5,-3.446c11.18,-2.804 21.883,-8.841 32.712,-13.113c11.882,-4.685 22.702,-11.883 33.835,-18.422c44.781,-26.306 90.883,-54.598 128.29,-93.366c43.764,-45.352 75.499,-103.263 105.623,-160.436c7.728,-14.659 14.493,-29.952 23.111,-43.989c9.821,-15.969 22.765,-29.487 35.906,-41.889c15.141,-14.29 31.929,-25.936 49.617,-35.577l0,-1.38c-30.804,16.91 -58.828,39.727 -81,69.846Zm-121.415,-68.821c0.024,0.046 0.048,0.091 0.071,0.135c0.335,0.632 1.115,0.288 1.178,-0.286l-0.005,-0.074c-0.005,-0.064 -0.015,-0.127 -0.033,-0.188c-0.033,-0.114 -0.091,-0.218 -0.17,-0.299c-0.156,-0.162 -0.382,-0.23 -0.59,-0.191c-0.131,0.024 -0.257,0.092 -0.344,0.206c-0.08,0.105 -0.12,0.241 -0.124,0.378c-0.002,0.082 0.007,0.166 0.012,0.247l0.005,0.072Zm-156.03,410.593c34.351,-20.988 68.093,-43.171 100.735,-67.457c20.477,-15.231 40.944,-30.814 59.304,-49.235c17.07,-17.131 32.361,-36.44 46.36,-56.786c27.274,-39.631 47.022,-84.095 70.788,-126.229c20.563,-36.448 48.196,-67.271 81.258,-88.339l0,-1.591c-28.547,18.018 -53.304,43.251 -72.672,73.178c-13.914,21.489 -24.734,45.264 -36.726,68.124c-11.556,22.017 -23.75,43.594 -37.141,64.247c-13.929,21.508 -29.461,41.634 -46.578,59.978c-19.054,20.425 -40.851,37.08 -62.649,53.497c-33.992,25.595 -69.358,48.737 -105.312,70.613l2.633,0Zm93.44,-350.238c0.019,-0.14 -0.007,-0.296 -0.096,-0.454c-3.07,-5.476 -6.126,-11.382 -12.055,-12.552c-4.031,-0.79 -8,0.643 -11.5,2.76c-8.71,5.292 -12.913,17.843 -12.577,28.45c0.382,11.814 8.889,19.442 19.147,16.129c3.625,-1.178 9.273,-9.791 11.493,-13.159c4.327,-6.573 6.544,-12.949 5.588,-21.174Zm-825.869,334.549c6.56,6.909 14.125,11.365 22.548,14.695c0.889,0.36 1.811,0.677 2.72,0.994l4.62,0c-0.684,-0.211 -1.376,-0.421 -2.06,-0.642c-9.268,-2.9 -23.002,-7.998 -27.751,-18.377c-7.481,-16.401 3.827,-23.74 14.407,-31.606c9.497,-7.077 19.673,-10.46 30.406,-14.59c10.675,-4.097 21.293,-8.315 31.859,-12.718c39.667,-16.524 79.04,-36.624 112.455,-66.313c19.001,-16.876 35.411,-37.205 52.467,-56.488c18.15,-20.504 35.315,-41.37 52.134,-63.272c16.365,-21.332 33.082,-42.32 50.663,-62.394c9.612,-10.978 19.827,-19.96 30.944,-28.862c7.699,-6.162 18.764,-9.73 26.886,-1.961c3.347,3.217 4.288,9.625 6.31,14.028c0.282,48.911 -2.707,98.208 -15.142,145.301c-6.182,23.413 -15.155,45.818 -26.822,66.391c-5.933,10.46 -12.788,20.207 -20.167,29.391c-7.968,9.914 -17.024,17.246 -26.214,25.551c-20.359,18.403 -45.651,30.259 -69.946,40.508c-23.053,9.72 -46.873,17.041 -70.803,23.431c-17.485,4.676 -35.091,8.72 -52.723,12.622l6.464,0c45.453,-10.169 91.187,-21.613 133.997,-42.056c10.899,-5.203 21.561,-10.908 32,-17.209c11.2,-6.76 20.262,-15.311 30.662,-23.379c15.93,-12.366 28.845,-32.316 39.174,-50.527c21.882,-38.567 32.32,-83.963 37.255,-128.998c2.957,-26.912 3.686,-54.087 3.533,-81.185c-0,-0.018 -0.013,-0.026 -0.013,-0.043c-0,-0.027 -0.013,-0.054 -0.013,-0.079c-0.013,-0.079 -0.032,-0.149 -0.051,-0.212c-0.013,-0.008 -0.013,-0.017 -0.013,-0.017c-2.925,-6.197 -4.186,-15.31 -11.046,-17.832c-10.164,-3.728 -18.253,0.473 -26.464,7.049c-9.62,7.707 -18.1,15.159 -26.471,24.555c-9.638,10.82 -18.944,22.018 -28.109,33.345c-17.44,21.552 -33.145,45.493 -51.424,66.085c-19.334,21.771 -38.611,43.603 -57.913,65.409c-34.899,39.402 -81.12,64.002 -126.656,83.549c-10.528,4.527 -21.171,8.754 -31.827,12.902c-5.312,2.066 -10.631,4.096 -15.956,6.127c-3.782,1.44 -10.438,2.442 -13.529,5.211c-5.018,4.491 -10.426,8.271 -15.783,12.198c-5.075,3.737 -3.968,3.016 -6.7,8.896c-0.813,1.741 -3.456,5.747 -2.829,8.086c0.953,3.497 2.752,10.142 4.921,12.436Zm824.63,-334.384c-3.356,-5.98 -7.319,-12.875 -14.452,-11.86c-4.163,0.588 -8.132,2.503 -11.092,5.941c-4.962,5.748 -8.51,13.842 -8.244,22.052c0.454,14.019 11.555,23.529 22.259,11.584c6.963,-7.782 12.812,-16.041 11.529,-27.717Zm-47.74,350.073c12.602,-7.839 25.296,-15.494 37.391,-24.266c19.789,-14.353 38.937,-30.226 57.281,-46.802c18.179,-16.436 36.445,-31.615 53.304,-49.87c15.477,-16.743 29.805,-34.804 42.734,-54.105c24.681,-36.826 42.258,-79.093 65.719,-116.912c16.111,-25.972 34.962,-49.869 57.555,-68.081l0,-1.818c-18.382,14.598 -34.366,32.967 -48.273,53.333c-25.212,36.93 -43.36,78.704 -66.304,117.271c-27.079,45.527 -62.469,81.72 -100.72,114.839c-19.429,16.822 -38.803,33.6 -59.226,48.919c-13.485,10.108 -27.843,18.65 -42.047,27.492l2.586,0Zm47.74,-350.073l0.057,0.101c0.348,0.617 1.11,0.289 1.182,-0.266l-0.011,-0.094c-0.101,-0.896 -1.366,-0.906 -1.257,0c0.01,0.086 0.02,0.172 0.029,0.259Zm-18.029,350.073c29.179,-20.997 57.907,-42.628 85.78,-65.875c16.111,-13.439 31.853,-26.551 45.525,-43.18c6.258,-7.61 14.164,-13.817 20.03,-21.655c2.009,-2.681 3.196,-6.302 4.508,-9.449c2.82,-6.732 7.547,-11.637 11.899,-17.085c13.759,-17.228 25.648,-35.561 36.219,-55.39c10.078,-18.896 19.5,-38.223 29.868,-56.927c10.702,-19.309 22.742,-37.608 37.014,-53.753c4.227,-4.781 8.742,-8.869 13.43,-12.585l0,-2.013c-3.539,2.784 -6.975,5.79 -10.233,9.166c-13.642,14.124 -25.04,30.788 -35.344,48.076c-10.837,18.176 -20.266,37.389 -30.049,56.295c-11.225,21.699 -23.514,41.509 -37.764,60.838c-5.564,7.54 -12.173,13.815 -16.125,22.665c-2.173,4.869 -3.915,9.274 -7.65,12.982c-4.366,4.342 -8.734,8.43 -12.803,13.158c-6.657,7.735 -12.852,15.829 -20.189,22.79c-9.265,8.798 -19.241,16.726 -28.976,24.837c-28.436,23.678 -57.734,45.712 -87.501,67.105l2.361,0Zm31.75,0c57.312,-42.266 112.555,-88.067 157.187,-147.411c22.781,-30.278 40.242,-64.352 58.759,-97.979c10.882,-19.768 22.656,-38.909 36.577,-55.671l0,-2.197c-36.867,43.523 -58.804,103.228 -92.452,149.731c-45.165,62.42 -102.938,109.871 -162.361,153.527l2.29,0Zm23.39,0c22.892,-18.071 45.914,-35.912 67.946,-55.318c7.624,-6.716 15.702,-17.033 24.797,-20.856c5.352,-2.241 10.648,-9.731 14.851,-13.948c13.078,-13.132 25.241,-27.378 36.696,-42.311c21.023,-27.423 38.914,-57.71 55.32,-88.832c4.304,-8.156 9.57,-14.792 13.711,-23.071c4.132,-8.28 9.336,-15.091 13.883,-22.939c0.632,-1.109 1.281,-2.198 1.929,-3.289l0,-2.477c-3.406,5.554 -6.75,11.117 -11.038,15.961c-1.797,2.031 -3.157,6.626 -4.422,9.168c-2.704,5.412 -5.103,11.092 -9.032,15.528c-5.077,5.74 -8.218,14.415 -11.952,21.333c-4.336,8.041 -8.837,15.96 -13.439,23.809c-9.976,17.033 -20.765,33.443 -32.344,49.13c-10.545,14.31 -21.96,27.783 -33.96,40.536c-12.094,12.85 -25.571,22.738 -38.406,34.523c-24.555,22.544 -50.751,42.617 -76.688,63.053l2.148,0Zm-1690.87,-262.53c18.406,3.323 36.659,7.92 55.11,10.996c9.658,1.608 18.592,5.607 28.263,7.909c12.55,2.989 24.941,6.707 37.222,10.856c50.515,17.077 98.17,45.132 145.639,70.708c23.763,12.805 47.609,25.47 71.763,37.308c23.225,11.375 47.065,21.007 70.285,32.353c10.675,5.22 21.158,10.9 31.468,16.973c5.3,3.119 10.516,6.442 15.687,9.826c6.201,4.06 15.264,8.454 19.501,15.177c8.832,14.073 -6.938,25.841 -15.815,31.799c-10.822,7.253 -22.752,12.235 -34.713,16.453c-2.144,0.757 -4.301,1.477 -6.471,2.172l4.327,0c2.547,-0.845 5.075,-1.714 7.609,-2.637c9.498,-3.489 18.688,-7.9 27.501,-13.235c6.234,-3.79 16.314,-8.869 19.059,-16.938c7.175,-20.952 -12.358,-28.907 -25.593,-37.416c-20.327,-13.067 -41.792,-23.72 -63.501,-33.512c-49.619,-22.384 -97.843,-47.433 -146.093,-73.353c-45.434,-24.406 -91.104,-48.955 -139.981,-63.254c-4.832,-1.408 -9.702,-2.682 -14.579,-3.92c-5.466,-1.39 -12.768,-1.549 -17.626,-4.765c-7.59,-5.01 -17.331,-4.437 -25.939,-6.098c-14.406,-2.778 -28.717,-6.171 -43.123,-8.79l0,1.388Zm1044.16,193.094l0.085,0c1.796,0.002 3.692,-0.083 5.679,-0.076c18.349,0.043 36.557,-4.844 53.472,-12.631c33.395,-15.381 61.914,-44.805 77.21,-81.799c4.864,-11.75 7.944,-24.344 9.612,-37.151l0.02,-0.151c3.641,-16.32 3.82,-35.71 -9.012,-46.933c-4.729,-4.131 -16.256,0.537 -20.204,3.753c-10.196,8.296 -21.543,15.241 -30.349,25.427c-33.312,38.566 -68.979,75.243 -95.168,120.71c-2.311,4.025 -6.291,9.306 -7.411,13.948c-0.512,2.065 2.067,6.275 2.854,7.76c3.39,6.327 7.86,7.132 13.212,7.143Zm144.903,-132.344c2.111,-9.562 3.431,-20.618 0.618,-30.198c-2.496,-8.501 -7.418,-18.043 -17.319,-15.451c-6.099,1.599 -10.803,4.393 -15.936,8.375c-10.348,8.024 -20.121,15.688 -28.985,25.814c-7.616,8.71 -15.296,17.34 -22.938,26.015c-15.155,17.237 -30.265,34.621 -44.019,53.323c-7.315,9.95 -14.394,20.171 -20.742,30.947c-2.644,4.465 -5.236,8.965 -7.642,13.596c-2.989,5.731 -1.056,17.288 6.528,17.929c69.05,5.829 140.173,-51.116 150.4,-130.192l-0.023,0.175c0.002,-0.052 0.008,-0.107 0.021,-0.164l0.002,-0.011c0.007,-0.058 0.019,-0.111 0.035,-0.158Zm-1189.06,-43.962c41.331,6.593 82.048,17.34 121.549,32.791c23.622,9.238 46.95,20.189 69.235,33.022c10.182,5.862 19.731,13.069 29.92,18.966c11.437,6.609 23.437,12.182 35.155,18.115c43.315,21.918 86.362,44.348 124.672,76.402c28.128,23.537 -3.641,48.858 -23.437,59.406c-5.017,2.68 -10.124,4.982 -15.296,7.04l4.045,0c2.567,-1.107 5.095,-2.293 7.597,-3.577c14.483,-7.417 32.499,-16.656 38.291,-34.99c7.034,-22.28 -17.062,-34.848 -30.669,-44.946c-20.544,-15.259 -42.451,-28.055 -64.64,-39.991c-22.124,-11.901 -44.672,-22.817 -66.937,-34.401c-22.029,-11.461 -42.439,-26.164 -64.685,-37.327c-45.69,-22.912 -94.112,-38.53 -143.315,-48.225c-7.143,-1.406 -14.298,-2.646 -21.485,-3.772l0,1.487Zm1716.33,245.742c19.352,-14.44 38.626,-29.012 57.29,-44.579c25.694,-21.446 49.092,-45.543 71.203,-71.559c20.859,-24.539 38.968,-50.932 54.491,-80.087c6.688,-12.559 13.439,-25.128 20.688,-37.275l0,-2.574c-6.078,10.089 -11.796,20.479 -17.406,30.937c-16.586,30.929 -34.672,59.256 -56.672,85.624c-22.485,26.964 -46.648,51.556 -72.946,73.704c-19.117,16.092 -38.984,30.999 -58.897,45.809l2.249,0Zm-1716.33,-225.817c4.41,0.835 8.813,1.67 13.203,2.549c6.311,1.256 12.608,2.636 18.893,4.113c5.875,1.38 13.139,5.063 19.078,5.088c12.903,0.071 24.935,6.628 37.152,10.854c12.756,4.404 25.568,8.491 38.125,13.536c23.987,9.634 47.162,23.405 70.24,35.508c21.946,11.514 43.61,23.73 64.339,37.882c10.036,6.846 19.738,14.308 29.14,22.208c10.547,8.868 21.849,19.311 29.894,31.167c9.907,14.607 -0.294,29.927 -10.957,39.006c-8.717,7.452 -19.513,11.143 -29.593,15.522c-6.81,2.96 -13.735,5.765 -20.73,8.384l3.795,0c1.907,-0.729 3.815,-1.46 5.722,-2.207c17.261,-6.829 37.011,-13.105 49.696,-28.906c4.429,-5.512 8.288,-13.649 7.693,-21.226c-0.8,-9.985 -9.594,-18.176 -15.738,-24.161c-4.058,-3.964 -7.654,-8.631 -11.968,-12.534c-3.891,-3.533 -7.904,-6.907 -11.936,-10.229c-10.221,-8.438 -20.954,-16.067 -31.878,-23.292c-20.89,-13.833 -42.81,-25.558 -64.781,-36.993c-16.058,-8.349 -32.122,-16.708 -48.218,-24.995c-16.825,-8.658 -34.861,-14.021 -52.499,-20.04c-8.986,-3.066 -17.734,-6.988 -26.733,-9.905c-2.534,-0.826 -5.299,-0.878 -7.91,-0.985c-6.151,-0.256 -12.467,-2.786 -18.451,-4.289c-11.783,-2.97 -23.674,-5.299 -35.578,-7.549l0,1.494Zm1189,24.37c-0.021,0.764 1.045,1.037 1.23,0.214l0.003,-0.011c0.107,-0.838 -0.945,-1.231 -1.175,-0.536c-0.012,0.053 -0.023,0.106 -0.035,0.158l-0.015,0.116l-0.008,0.059Zm-1189,3.939c43.706,8.219 88.077,18.826 128.282,39.234c10.483,5.326 21.516,9 31.814,14.899c10.886,6.231 21.248,14.36 31.533,21.796c9.965,7.198 19.654,14.889 28.857,23.299c8.826,8.07 26.388,22.571 27.232,36.441c1.658,27.613 -31.123,39.153 -49.67,45.104c-26.029,8.341 -54.816,8.13 -81.203,2.11c-40.749,-9.281 -78.375,-30.076 -116.845,-47.461l0,1.467c38.426,17.235 75.878,37.548 116.499,47.375c22.874,5.527 47.002,5.588 70.003,0.966c18.375,-3.701 40.359,-11.778 54.592,-26.174c5.517,-5.59 7.207,-12.551 7.764,-20.54c0.812,-11.426 -6.733,-18.273 -13.312,-25.84c-15.45,-17.772 -34.125,-31.614 -52.73,-44.72c-41.984,-29.539 -89.958,-47.055 -138.016,-59.396c-14.848,-3.805 -29.798,-7.022 -44.8,-9.922l0,1.362Zm1746.86,197.508c37.546,-28.354 73.937,-59.204 106.522,-94.429c24.97,-26.982 46.29,-57.473 66.618,-88.849l0,-2.524c-20.046,30.93 -40.999,61.033 -65.352,88.006c-33.241,36.826 -71.148,68.624 -110.022,97.796l2.234,0Zm-1746.86,-157.728c26.061,3.277 52.019,7.646 77.344,15.566c16.813,5.254 33.126,12.453 48.563,21.674c7.034,4.208 13.767,9.043 20.295,14.193c8.454,6.679 20.3,15.347 23.769,26.832c3.904,13.036 -6.47,22.404 -15.782,26.289c-7.328,3.058 -15.315,3.146 -23.015,2.671c-18.803,-1.177 -37.222,-6.574 -54.905,-13.57c-26.439,-10.458 -51.219,-25.373 -76.269,-39.47l0,1.528c29.19,16.322 58.016,33.583 89.312,44.252c17.325,5.899 36.998,10.653 55.155,8.473c10.349,-1.247 26.407,-7.866 27.207,-22.043c1.043,-18.869 -17.095,-30.322 -29.236,-39.621c-16.044,-12.278 -33.907,-21.26 -52.204,-28.238c-29.108,-11.109 -59.687,-16.26 -90.234,-20.004l0,1.468Zm1770.4,157.728c13.165,-10.107 26.235,-20.372 39.078,-30.991c18.171,-15.028 35.226,-31.614 52.664,-47.688c21.891,-20.181 40.234,-43.919 57.859,-68.458l0,-2.128c-17.227,24.127 -35.132,47.523 -56.43,67.43c-30.992,28.969 -62.694,56.091 -95.648,81.835l2.477,0Zm31.406,0c42.063,-32.107 81.64,-68.107 118.195,-107.833l0,-1.986c-37.187,40.535 -77.523,77.212 -120.445,109.819l2.25,0Zm25.445,0c20.758,-16.533 40.586,-34.541 61.032,-51.592c6.218,-5.186 12.374,-9.088 19.085,-13.183c4.649,-2.832 8.953,-8.103 12.633,-12.78l0,-2.223c-4.46,5.457 -9.609,12.199 -15.132,14.571c-6.461,2.768 -11.656,7.78 -17.228,12.384c-21.022,17.393 -41.304,35.92 -62.616,52.823l2.226,0Zm35.078,0c11.564,-9.036 22.767,-18.677 34.117,-28.082c7.797,-6.459 15.672,-12.805 23.555,-19.133l0,-1.705c-8.094,6.495 -16.171,13.008 -24.195,19.617c-11.899,9.8 -23.593,19.907 -35.718,29.303l2.241,0Zm-1862.33,-28.547c23.091,9.809 46.112,19.863 69.517,28.547l3.469,0c-24.615,-8.983 -48.781,-19.689 -72.986,-30.025l0,1.478Zm1889.37,28.547c10.165,-7.656 20.384,-15.241 30.633,-22.756l0,-1.695c-11.016,8.067 -21.992,16.216 -32.899,24.451l2.266,0Zm-1889.37,-7.049c5.581,2.293 11.123,4.649 16.659,7.049l3.482,0c-6.688,-2.918 -13.389,-5.792 -20.141,-8.562l0,1.513Z" style="fill:none;fill-rule:nonzero;stroke:rgb(236,175,59);stroke-opacity:0.1;stroke-width:1px;"/>
</svg>
