<?xml version="1.0" encoding="UTF-8" standalone="no"?>
<!DOCTYPE svg PUBLIC "-//W3C//DTD SVG 1.1//EN" "http://www.w3.org/Graphics/SVG/1.1/DTD/svg11.dtd">
<svg width="100%" height="100%" viewBox="0 0 93 67" version="1.1" xmlns="http://www.w3.org/2000/svg" xmlns:xlink="http://www.w3.org/1999/xlink" xml:space="preserve" xmlns:serif="http://www.serif.com/" style="fill-rule:evenodd;clip-rule:evenodd;stroke-miterlimit:8;">
    <g transform="matrix(1,0,0,1,-914,-242)">
        <g id="gitorbit-logo" transform="matrix(1.00446,0,0,1,-4.08571,0)">
            <path d="M991.359,275.504C991.359,274.957 991.346,274.413 991.319,273.874C989.72,275.174 988.04,276.48 986.279,277.793L986.279,277.794C985.551,286.567 980.66,294.42 973.185,298.821C965.71,303.222 956.598,303.611 948.788,299.863C946.804,300.757 943.04,302.348 943.04,302.348C949.379,306.545 956.917,308.263 964.4,307.187C971.883,306.11 978.732,302.31 983.685,296.489C988.639,290.667 991.364,283.215 991.358,275.505L991.359,275.504ZM966.111,286.303C990.62,271.867 1007.75,255.329 1004.38,249.365C1002.57,246.164 995.209,246.664 984.998,250.043C986.387,251.463 987.658,252.998 988.8,254.632C991.295,254.35 992.976,254.684 993.569,255.731C995.748,259.583 982.485,271.557 963.946,282.478C945.406,293.399 928.611,299.129 926.431,295.278C925.839,294.231 926.395,292.581 927.881,290.518C927.061,288.694 926.393,286.803 925.884,284.865C917.913,292.196 913.813,298.444 915.624,301.644C918.999,307.609 941.602,300.74 966.111,286.304L966.111,286.303ZM959.999,248.587C964.926,248.591 969.753,250.002 973.935,252.659C978.116,255.316 981.487,259.113 983.664,263.622C984.971,262.467 986.214,261.24 987.389,259.947C984.688,254.988 980.743,250.851 975.957,247.961C971.173,245.071 965.72,243.532 960.159,243.5C954.599,243.47 949.13,244.948 944.314,247.785C939.498,250.621 935.509,254.713 932.755,259.643C930.001,264.571 928.58,270.158 928.641,275.831C928.701,281.504 930.239,287.059 933.098,291.925C934.782,291.527 936.443,291.037 938.075,290.457C934.514,285.03 933.009,278.466 933.841,271.99C934.674,265.515 937.787,259.569 942.601,255.263C947.414,250.957 953.598,248.584 959.999,248.587L959.999,248.587Z" style="fill:white;fill-rule:nonzero;stroke:white;stroke-width:2px;"/>
        </g>
    </g>
</svg>
