<?xml version="1.0" encoding="UTF-8" standalone="no"?>
<!DOCTYPE svg PUBLIC "-//W3C//DTD SVG 1.1//EN" "http://www.w3.org/Graphics/SVG/1.1/DTD/svg11.dtd">
<svg width="100%" height="100%" viewBox="0 0 32 32" version="1.1" xmlns="http://www.w3.org/2000/svg" xmlns:xlink="http://www.w3.org/1999/xlink" xml:space="preserve" xmlns:serif="http://www.serif.com/" style="fill-rule:evenodd;clip-rule:evenodd;stroke-linejoin:round;stroke-miterlimit:2;">
    <g transform="matrix(1,0,0,1,-176,0)">
        <g id="home" transform="matrix(1,0,0,1,176,0)">
            <rect x="0" y="0" width="32" height="32" style="fill:none;"/>
            <clipPath id="_clip1">
                <rect x="0" y="0" width="32" height="32"/>
            </clipPath>
            <g clip-path="url(#_clip1)">
                <g id="home-icon" transform="matrix(1.06667,0,0,1.06667,-188.8,-1.06667)">
                    <path d="M207,5.688L192,5.688L188.25,1L177,1L177,31L207,31L207,5.688ZM205.125,7.563L205.125,29.125C205.125,29.125 178.875,29.125 178.875,29.125C178.875,29.125 178.875,2.875 178.875,2.875C178.875,2.875 187.349,2.875 187.349,2.875C187.349,2.875 191.099,7.563 191.099,7.563L205.125,7.563Z" style="fill:white;"/>
                </g>
            </g>
        </g>
    </g>
</svg>
