<?xml version="1.0" encoding="UTF-8" standalone="no"?>
<!DOCTYPE svg PUBLIC "-//W3C//DTD SVG 1.1//EN" "http://www.w3.org/Graphics/SVG/1.1/DTD/svg11.dtd">
<svg width="100%" height="100%" viewBox="0 0 32 32" version="1.1" xmlns="http://www.w3.org/2000/svg" xmlns:xlink="http://www.w3.org/1999/xlink" xml:space="preserve" xmlns:serif="http://www.serif.com/" style="fill-rule:evenodd;clip-rule:evenodd;stroke-linejoin:round;stroke-miterlimit:2;">
    <rect id="new" x="0" y="0" width="32" height="32" style="fill:none;"/>
    <clipPath id="_clip1">
        <rect x="0" y="0" width="32" height="32"/>
    </clipPath>
    <g clip-path="url(#_clip1)">
        <path id="new-icon" d="M32,-0l-32,-0l-0,32l32,-0l0,-32Zm-2,2l0,28c-0,-0 -28,-0 -28,-0c0,-0 -0,-28 -0,-28c0,-0 28,-0 28,0Zm-13,13l0,-7l-2,0l0,7l-7,0l0,2l7,0l0,7l2,0l0,-7l7,0l0,-2l-7,0Z" style="fill:white;"/>
    </g>
</svg>
